<?xml version="1.0" encoding="UTF-8"?>
<svg width="121px" height="40px" viewBox="0 0 121 40" version="1.1" xmlns="http://www.w3.org/2000/svg" xmlns:xlink="http://www.w3.org/1999/xlink">
    <!-- Generator: Sketch 57.1 (83088) - https://sketch.com -->
    <title>S-Standard</title>
    <desc>Created with Sketch.</desc>
    <g id="Symbols" stroke="none" stroke-width="1" fill="none" fill-rule="evenodd">
        <g id="bar/navigation/brand-big/white" transform="translate(-60.000000, -15.000000)" fill="#6E1C5A" fill-rule="nonzero">
            <g id="S-Standard" transform="translate(60.000000, 15.000000)">
                <polygon id="Path" points="41.3333505 38.9375 38.3956701 38.9375 38.3956701 26.4625 41.4518557 26.4625 45.2377835 31.8625 48.8241237 26.4625 51.8491237 26.4625 51.8491237 38.9375 48.9114433 38.9375 48.9114433 31.95 48.9239175 31.3625 45.3375773 36.55 45.0569072 36.55 41.3146392 31.3125 41.3333505 31.93125"></polygon>
                <path d="M64.5603608,37.08125 L59.5706701,37.08125 L58.903299,38.95625 L55.8159278,38.95625 L60.6434536,26.45625 L63.6185567,26.45625 L68.4398454,38.95625 L65.2526804,38.95625 L64.5603608,37.08125 Z M63.7245876,34.74375 L62.0904639,30.175 L60.4376289,34.74375 L63.7245876,34.74375 Z" id="Shape"></path>
                <polygon id="Path" points="76.3984021 33.95625 75.3630412 35.175 75.3630412 38.9375 72.3879381 38.9375 72.3879381 26.4625 75.3630412 26.4625 75.3630412 31.2125 79.2300515 26.4625 82.8538144 26.4625 78.4504124 31.68125 83.3902062 38.9375 79.7539691 38.9375"></polygon>
                <polygon id="Path" points="87.4006701 26.4625 94.6107732 26.4625 94.6107732 29.0875 90.3757732 29.0875 90.3757732 31.38125 94.1804124 31.38125 94.1804124 33.76875 90.3757732 33.76875 90.3757732 36.3125 94.7479897 36.3125 94.7479897 38.9375 87.4006701 38.9375"></polygon>
                <g id="Group">
                    <path d="M102.712784,34.775 L102.531907,34.775 L102.531907,38.9375 L99.5568041,38.9375 L99.5568041,26.4375 L103.13067,26.4375 C105.581856,26.4375 108.020567,27.3375 108.020567,30.66875 C108.018977,32.1682758 107.126074,33.522687 105.750258,34.1125 L109.22433,38.9125 L105.669175,38.9125 L102.712784,34.775 Z M102.531907,29.10625 L102.531907,32.43125 L103.211753,32.43125 C104.38433,32.43125 105.082887,31.80625 105.082887,30.74375 C105.082887,29.68125 104.315722,29.10625 103.211753,29.10625 L102.531907,29.10625 Z" id="Shape"></path>
                    <path d="M119.42201,29.2875 C118.867282,28.8820659 118.205609,28.6494583 117.519691,28.61875 C116.665206,28.61875 116.272268,28.95625 116.272268,29.45625 C116.272268,30.08125 116.895979,30.49375 118.024897,31.53125 C120.033247,33.3375 120.681907,34.3875 120.681907,35.69375 C120.681907,37.85 118.748402,39.1375 116.315928,39.1375 C115.094872,39.1339366 113.892605,38.8359642 112.81067,38.26875 L113.846031,35.98125 C114.583991,36.440844 115.428925,36.6993722 116.297216,36.73125 C117.151701,36.73125 117.669381,36.28125 117.669381,35.74375 C117.669381,35.11875 117.04567,34.5375 115.87933,33.46875 C113.877216,31.73125 113.17866,30.925 113.17866,29.45625 C113.17866,27.78125 114.513402,26.2125 117.482268,26.2125 C118.537992,26.2465631 119.572261,26.5200889 120.507268,27.0125 L119.42201,29.2875 Z" id="Path"></path>
                    <path d="M26.0836082,31.875 C27.0576164,30.2494731 27.7809674,28.4858228 28.2291753,26.64375 C28.7390912,24.5536207 28.9863335,22.4078261 28.9651546,20.25625 L22.5534021,20.25625 C22.5908247,21.50625 22.4099485,22.6875 22.4099485,23.79375 C22.4469549,27.1342276 20.8982509,30.293709 18.2373196,32.30625 C17.1957216,33.08125 14.6634536,34.18125 13.2476289,34.18125 C12.3590002,34.1917786 11.4744789,34.0588262 10.6280412,33.7875 C9.93376659,33.5454201 9.2967842,33.162441 8.75690722,32.6625 C8.23868919,32.1803934 7.83024176,31.5920371 7.55938144,30.9375 C7.26835667,30.2390586 7.12398377,29.4880449 7.13525773,28.73125 C7.09788707,27.5275384 7.39593829,26.3371988 7.99597938,25.29375 C8.60314502,24.3155157 9.37314159,23.448801 10.2725258,22.73125 L17.1333505,30.85625 C17.2657773,31.0127368 17.463621,31.0981533 17.6680781,31.0871119 C17.8725351,31.0760705 18.0600719,30.969842 18.1749485,30.8 L20.9754124,26.49375 C21.1168648,26.2675395 21.0993247,25.976274 20.9317526,25.76875 L15.5927835,19.375 L17.931701,17.55 C18.9280713,16.9424298 19.8474457,16.2163233 20.6697938,15.3875 C21.4769542,14.5686582 22.1317303,13.6119799 22.603299,12.5625 C23.1190329,11.3813766 23.3702496,10.1013643 23.3392784,8.8125 C23.3445877,7.68783989 23.108477,6.57518707 22.6469588,5.55 C22.1795363,4.51926392 21.4892756,3.60555406 20.626134,2.875 C19.6653619,2.07435791 18.5630768,1.46165431 17.3765979,1.06875 C15.968458,0.604309358 14.4929159,0.378296202 13.0106186,0.4 C11.4337603,0.381377649 9.86832298,0.670064189 8.40139175,1.25 C7.1431393,1.74874157 5.99464873,2.48979573 5.02087629,3.43125 C4.12000694,4.3175009 3.41273818,5.38166015 2.94391753,6.55625 C2.47630218,7.7269024 2.2370506,8.97655141 2.23912371,10.2375 C2.26089629,11.5803242 2.5603462,12.9040311 3.1185567,14.125 C3.74580538,15.5264381 4.5690554,16.8312074 5.56350515,18 L6.11237113,18.75 L4.40963918,20.625 C3.62021042,21.2920068 2.91815941,22.0564085 2.32020619,22.9 C1.70647958,23.7806139 1.22132943,24.7445007 0.87943299,25.7625 C0.509309392,26.9130612 0.328153051,28.1162293 0.343041237,29.325 C0.32463624,30.7785124 0.602671624,32.2204779 1.16010309,33.5625 C1.6971472,34.8166003 2.51948094,35.9274393 3.56139175,36.80625 C4.70222545,37.7472463 6.01903664,38.4505717 7.43463918,38.875 C9.12998866,39.3813929 10.8924646,39.6258674 12.6613402,39.6 C14.3532593,39.6099548 16.0364875,39.3569489 17.6510309,38.85 C19.1918488,38.3577912 20.6354428,37.6006649 21.9172165,36.6125 L23.925567,38.96875 L32.1024227,38.96875 L26.0836082,31.875 Z M9.03757732,8.1875 C9.20983896,7.70059424 9.47936657,7.25399784 9.82969072,6.875 C10.1860801,6.478629 10.6245862,6.1650679 11.1145361,5.95625 C11.6568369,5.71841513 12.2441229,5.6011417 12.8359794,5.6125 C13.4187152,5.59884253 13.9974871,5.71185094 14.5324742,5.94375 C15.0009042,6.14613129 15.4248256,6.43924143 15.7798969,6.80625 C16.1197454,7.16712654 16.3847439,7.59200009 16.5595361,8.05625 C16.7327628,8.49238886 16.8277781,8.95575206 16.8402062,9.425 C16.8444768,10.0729658 16.7038152,10.7136577 16.4285567,11.3 C16.1426818,11.8938193 15.7612855,12.4364788 15.2996392,12.90625 C14.7892986,13.425789 14.2247168,13.8888645 13.6156186,14.2875 C12.9919072,14.71875 12.2995876,15.14375 11.5823196,15.5375 L11.5261856,15.43125 C10.7708684,14.5383454 10.098619,13.578097 9.51783505,12.5625 C9.03801228,11.7054496 8.78668416,10.7389583 8.78809278,9.75625 C8.78484654,9.20529934 8.87554978,8.65784175 9.05628866,8.1375 L9.03757732,8.1875 Z" id="Shape"></path>
                </g>
            </g>
        </g>
    </g>
</svg>