<?xml version="1.0" encoding="utf-8"?>
<!-- Generator: Adobe Illustrator 25.2.3, SVG Export Plug-In . SVG Version: 6.00 Build 0)  -->
<svg version="1.1" id="圖層_1" xmlns="http://www.w3.org/2000/svg" xmlns:xlink="http://www.w3.org/1999/xlink" x="0px" y="0px"
	 viewBox="0 0 15 15" style="enable-background:new 0 0 15 15;" xml:space="preserve">
<style type="text/css">
	.st0{fill-rule:evenodd;clip-rule:evenodd;fill:#FFFFFF;}
</style>
<desc>Created with Sketch.</desc>
<g id="Artboard">
	<rect y="0" class="st0" width="15" height="15"/>
	<path id="_xF104_" d="M7.5,10C7.7,10,7.9,9.9,8,9.8l0,0l3.8-4.1l0.1-0.1C12,5.6,12,5.5,12,5.4c0-0.1,0-0.2-0.1-0.3S11.7,5,11.5,5
		l0,0h-8C3.3,5,3.2,5,3.1,5.1S3,5.3,3,5.4c0,0.1,0,0.2,0.1,0.2l0,0l0.1,0.1L7,9.8C7.1,9.9,7.3,10,7.5,10z"/>
</g>
</svg>
