<?xml version="1.0" encoding="UTF-8"?>
<svg width="70px" height="70px" viewBox="0 0 70 70" version="1.1" xmlns="http://www.w3.org/2000/svg" xmlns:xlink="http://www.w3.org/1999/xlink">
    <title>auto_graph-24px</title>
    <defs>
        <linearGradient x1="-1.11022302e-14%" y1="50%" x2="100%" y2="50%" id="linearGradient-1">
            <stop stop-color="#F7B52B" offset="0%"></stop>
            <stop stop-color="#C5661A" offset="100%"></stop>
        </linearGradient>
    </defs>
    <g id="Page-1" stroke="none" stroke-width="1" fill="none" fill-rule="evenodd">
        <g id="XX-Large-/-Home-P1" transform="translate(-661.000000, -1184.000000)">
            <g id="Group-13" transform="translate(0.000000, 960.000000)">
                <g id="Group-3" transform="translate(579.000000, 214.000000)">
                    <g id="auto_graph-24px" transform="translate(82.000000, 10.000000)">
                        <rect id="Rectangle" x="0" y="0" width="70" height="70"></rect>
                        <path d="M41.0083333,28.9916667 L37.9166667,27.5625 C36.7791667,27.0375 36.7791667,25.4333333 37.9166667,24.9083333 L41.0083333,23.4791667 L42.4375,20.4166667 C42.9625,19.2791667 44.5666667,19.2791667 45.0916667,20.4166667 L46.5208333,23.5083333 L49.5833333,24.9375 C50.7208333,25.4625 50.7208333,27.0666667 49.5833333,27.5916667 L46.4916667,29.0208333 L45.0625,32.0833333 C44.5375,33.2208333 42.9333333,33.2208333 42.4083333,32.0833333 L41.0083333,28.9916667 Z M12.9791667,37.9166667 L14.4083333,34.825 L17.5,33.3958333 C18.6375,32.8708333 18.6375,31.2666667 17.5,30.7416667 L14.4083333,29.3125 L12.9791667,26.25 C12.4833333,25.1125 10.85,25.1125 10.3541667,26.25 L8.925,29.3416667 L5.83333333,30.7708333 C4.69583333,31.2958333 4.69583333,32.9 5.83333333,33.425 L8.925,34.8541667 L10.3541667,37.9166667 C10.85,39.0541667 12.4833333,39.0541667 12.9791667,37.9166667 Z M26.1333333,23.3041667 L27.9708333,19.2208333 L32.0541667,17.3833333 C33.1916667,16.8583333 33.1916667,15.2541667 32.0541667,14.7291667 L27.9708333,12.8916667 L26.1333333,8.80833333 C25.6083333,7.67083333 24.0041667,7.67083333 23.4791667,8.80833333 L21.6416667,12.8916667 L17.5583333,14.7291667 C16.4208333,15.2541667 16.4208333,16.8583333 17.5583333,17.3833333 L21.6416667,19.2208333 L23.4791667,23.3041667 C23.975,24.4416667 25.6083333,24.4416667 26.1333333,23.3041667 Z M65.1583333,24.1208333 C63.9916667,22.9541667 62.0375,22.9833333 60.9291667,24.2375 L42.2916667,45.1791667 L32.6958333,35.5833333 C31.5583333,34.4458333 29.7208333,34.4458333 28.5833333,35.5833333 L10.9666667,53.2291667 C9.77083333,54.425 9.77083333,56.4083333 10.9666667,57.6041667 C12.1625,58.8 14.1458333,58.8 15.3416667,57.6041667 L30.6541667,42.2625 L40.1333333,51.7416667 C41.3291667,52.9375 43.2541667,52.8791667 44.3625,51.625 L65.275,28.0875 C66.2958333,26.95 66.2375,25.2 65.1583333,24.1208333 Z" id="Shape" fill="url(#linearGradient-1)" fill-rule="nonzero"></path>
                    </g>
                </g>
            </g>
        </g>
    </g>
</svg>