<?xml version="1.0" encoding="UTF-8"?>
<svg width="80px" height="80px" viewBox="0 0 80 80" version="1.1" xmlns="http://www.w3.org/2000/svg" xmlns:xlink="http://www.w3.org/1999/xlink">
    <title>check_circle_outline-24px</title>
    <defs>
        <linearGradient x1="-1.11022302e-14%" y1="50%" x2="100%" y2="50%" id="linearGradient-1">
            <stop stop-color="#F7B52B" offset="0%"></stop>
            <stop stop-color="#C5661A" offset="100%"></stop>
        </linearGradient>
    </defs>
    <g id="Page-1" stroke="none" stroke-width="1" fill="none" fill-rule="evenodd">
        <g id="XX-Large-/-Success-Modal" transform="translate(-920.000000, -404.000000)">
            <g id="Group-11" transform="translate(755.000000, 354.000000)">
                <g id="check_circle_outline-24px" transform="translate(165.000000, 50.000000)">
                    <polygon id="Path" points="0 0 80 0 80 80 0 80"></polygon>
                    <path d="M40,6.66666667 C21.6,6.66666667 6.66666667,21.6 6.66666667,40 C6.66666667,58.4 21.6,73.3333333 40,73.3333333 C58.4,73.3333333 73.3333333,58.4 73.3333333,40 C73.3333333,21.6 58.4,6.66666667 40,6.66666667 Z M40,66.6666667 C25.3,66.6666667 13.3333333,54.7 13.3333333,40 C13.3333333,25.3 25.3,13.3333333 40,13.3333333 C54.7,13.3333333 66.6666667,25.3 66.6666667,40 C66.6666667,54.7 54.7,66.6666667 40,66.6666667 Z M52.9333333,27.6333333 L33.3333333,47.2333333 L27.0666667,40.9666667 C25.7666667,39.6666667 23.6666667,39.6666667 22.3666667,40.9666667 C21.0666667,42.2666667 21.0666667,44.3666667 22.3666667,45.6666667 L31,54.3 C32.3,55.6 34.4,55.6 35.7,54.3 L57.6666667,32.3333333 C58.9666667,31.0333333 58.9666667,28.9333333 57.6666667,27.6333333 C56.3666667,26.3333333 54.2333333,26.3333333 52.9333333,27.6333333 Z" id="Shape" fill="url(#linearGradient-1)" fill-rule="nonzero"></path>
                </g>
            </g>
        </g>
    </g>
</svg>