<?xml version="1.0" encoding="UTF-8"?>
<svg width="70px" height="70px" viewBox="0 0 70 70" version="1.1" xmlns="http://www.w3.org/2000/svg" xmlns:xlink="http://www.w3.org/1999/xlink">
    <title>gite-24px</title>
    <defs>
        <linearGradient x1="-1.11022302e-14%" y1="50%" x2="100%" y2="50%" id="linearGradient-1">
            <stop stop-color="#F7B52B" offset="0%"></stop>
            <stop stop-color="#C5661A" offset="100%"></stop>
        </linearGradient>
    </defs>
    <g id="Page-1" stroke="none" stroke-width="1" fill="none" fill-rule="evenodd">
        <g id="XX-Large-/-Home-P1" transform="translate(-1189.000000, -1184.000000)">
            <g id="Group-13" transform="translate(0.000000, 960.000000)">
                <g id="Group-5" transform="translate(1107.000000, 214.000000)">
                    <g id="gite-24px" transform="translate(82.000000, 10.000000)">
                        <rect id="Rectangle" x="0" y="0" width="70" height="70"></rect>
                        <path d="M62.4458333,27.4458333 L54.1916667,19.1916667 C53.1125,18.1125 51.625,17.5 50.0791667,17.5 L26.25,17.5 L26.25,14.5833333 C26.25,12.9791667 24.9375,11.6666667 23.3333333,11.6666667 C21.7291667,11.6666667 20.4166667,12.9791667 20.4166667,14.5833333 L20.4166667,17.5 L19.9208333,17.5 C18.375,17.5 16.8875,18.1125 15.7791667,19.2208333 L7.55416667,27.4458333 C6.44583333,28.5541667 5.83333333,30.0416667 5.83333333,31.5875 L5.83333333,49.5833333 C5.83333333,52.7916667 8.45833333,55.4166667 11.6666667,55.4166667 L58.3333333,55.4166667 C61.5416667,55.4166667 64.1666667,52.7916667 64.1666667,49.5833333 L64.1666667,31.5875 C64.1666667,30.0416667 63.5541667,28.5541667 62.4458333,27.4458333 Z M40.8333333,49.5833333 L11.6666667,49.5833333 L11.6666667,35 L40.8333333,35 L40.8333333,49.5833333 Z M58.3333333,49.5833333 L46.6666667,49.5833333 L46.6666667,31.5875 L52.5,25.7541667 L58.3333333,31.5875 L58.3333333,49.5833333 Z" id="Shape" fill="url(#linearGradient-1)" fill-rule="nonzero"></path>
                    </g>
                </g>
            </g>
        </g>
    </g>
</svg>