<?xml version="1.0" encoding="UTF-8"?>
<svg width="70px" height="70px" viewBox="0 0 70 70" version="1.1" xmlns="http://www.w3.org/2000/svg" xmlns:xlink="http://www.w3.org/1999/xlink">
    <title>public-24px</title>
    <defs>
        <linearGradient x1="-1.11022302e-14%" y1="50%" x2="100%" y2="50%" id="linearGradient-1">
            <stop stop-color="#F7B52B" offset="0%"></stop>
            <stop stop-color="#C5661A" offset="100%"></stop>
        </linearGradient>
    </defs>
    <g id="Page-1" stroke="none" stroke-width="1" fill="none" fill-rule="evenodd">
        <g id="XX-Large-/-Home-P1" transform="translate(-397.000000, -1184.000000)">
            <g id="Group-13" transform="translate(0.000000, 960.000000)">
                <g id="Group-2" transform="translate(315.000000, 214.000000)">
                    <g id="public-24px" transform="translate(82.000000, 10.000000)">
                        <polygon id="Path" points="0 0 70 0 70 70 0 70"></polygon>
                        <path d="M35,5.83333333 C18.9,5.83333333 5.83333333,18.9 5.83333333,35 C5.83333333,51.1 18.9,64.1666667 35,64.1666667 C51.1,64.1666667 64.1666667,51.1 64.1666667,35 C64.1666667,18.9 51.1,5.83333333 35,5.83333333 Z M32.0833333,58.1291667 C20.5625,56.7 11.6666667,46.9 11.6666667,35 C11.6666667,33.1916667 11.9,31.4708333 12.2791667,29.7791667 L26.25,43.75 L26.25,46.6666667 C26.25,49.875 28.875,52.5 32.0833333,52.5 L32.0833333,58.1291667 Z M52.2083333,50.7208333 C51.45,48.3583333 49.2916667,46.6666667 46.6666667,46.6666667 L43.75,46.6666667 L43.75,37.9166667 C43.75,36.3125 42.4375,35 40.8333333,35 L23.3333333,35 L23.3333333,29.1666667 L29.1666667,29.1666667 C30.7708333,29.1666667 32.0833333,27.8541667 32.0833333,26.25 L32.0833333,20.4166667 L37.9166667,20.4166667 C41.125,20.4166667 43.75,17.7916667 43.75,14.5833333 L43.75,13.3875 C52.2958333,16.8583333 58.3333333,25.2291667 58.3333333,35 C58.3333333,41.0666667 56,46.5791667 52.2083333,50.7208333 Z" id="Shape" fill="url(#linearGradient-1)" fill-rule="nonzero"></path>
                    </g>
                </g>
            </g>
        </g>
    </g>
</svg>