<?xml version="1.0" encoding="UTF-8"?>
<svg width="70px" height="70px" viewBox="0 0 70 70" version="1.1" xmlns="http://www.w3.org/2000/svg" xmlns:xlink="http://www.w3.org/1999/xlink">
    <title>savings-24px</title>
    <defs>
        <linearGradient x1="-1.11022302e-14%" y1="50%" x2="100%" y2="50%" id="linearGradient-1">
            <stop stop-color="#F7B52B" offset="0%"></stop>
            <stop stop-color="#C5661A" offset="100%"></stop>
        </linearGradient>
    </defs>
    <g id="Page-1" stroke="none" stroke-width="1" fill="none" fill-rule="evenodd">
        <g id="XX-Large-/-Home-P1" transform="translate(-925.000000, -1184.000000)">
            <g id="Group-13" transform="translate(0.000000, 960.000000)">
                <g id="Group-4" transform="translate(843.000000, 214.000000)">
                    <g id="savings-24px" transform="translate(82.000000, 10.000000)">
                        <rect id="Rectangle" x="0" y="0" width="70" height="70"></rect>
                        <path d="M57.8375,21.875 L51.2166667,15.2541667 C51.4208333,14.0291667 51.7416667,12.8916667 52.15,11.9 C52.4708333,11.1416667 52.5875,10.2666667 52.4125,9.3625 C52.0333333,7.2625 49.9916667,5.80416667 47.8333333,5.83290361 C43.1958333,5.92083333 39.0833333,8.19583333 36.4583333,11.6666667 L21.875,11.6666667 C13.0083333,11.6666667 5.83333333,18.8416667 5.83333333,27.7083333 C5.83333333,34.2708333 9.82916667,49.525 11.9,56.9916667 C12.6,59.5 14.9041667,61.25 17.5291667,61.25 L23.3333333,61.25 C26.5416667,61.25 29.1666667,58.625 29.1666667,55.4166667 L29.1666667,55.4166667 L35,55.4166667 L35,55.4166667 C35,58.625 37.625,61.25 40.8333333,61.25 L46.6958333,61.25 C49.2625,61.25 51.5375,59.5583333 52.2958333,57.0791667 L55.9416667,44.9458333 L62.1833333,42.8458333 C63.3791667,42.4375 64.1666667,41.3291667 64.1666667,40.075 L64.1666667,24.7916667 C64.1666667,23.1875 62.8541667,21.875 61.25,21.875 L57.8375,21.875 Z M35,26.25 L26.25,26.25 C24.6458333,26.25 23.3333333,24.9375 23.3333333,23.3333333 L23.3333333,23.3333333 C23.3333333,21.7291667 24.6458333,20.4166667 26.25,20.4166667 L35,20.4166667 C36.6041667,20.4166667 37.9166667,21.7291667 37.9166667,23.3333333 L37.9166667,23.3333333 C37.9166667,24.9375 36.6041667,26.25 35,26.25 Z M46.6666667,32.0833333 C45.0625,32.0833333 43.75,30.7708333 43.75,29.1666667 C43.75,27.5625 45.0625,26.25 46.6666667,26.25 C48.2708333,26.25 49.5833333,27.5625 49.5833333,29.1666667 C49.5833333,30.7708333 48.2708333,32.0833333 46.6666667,32.0833333 Z" id="Shape" fill="url(#linearGradient-1)" fill-rule="nonzero"></path>
                    </g>
                </g>
            </g>
        </g>
    </g>
</svg>