<?xml version="1.0" encoding="UTF-8"?>
<svg width="70px" height="70px" viewBox="0 0 70 70" version="1.1" xmlns="http://www.w3.org/2000/svg" xmlns:xlink="http://www.w3.org/1999/xlink">
    <title>storefront-24px</title>
    <defs>
        <linearGradient x1="-1.11022302e-14%" y1="50%" x2="100%" y2="50%" id="linearGradient-1">
            <stop stop-color="#F7B52B" offset="0%"></stop>
            <stop stop-color="#C5661A" offset="100%"></stop>
        </linearGradient>
    </defs>
    <g id="Page-1" stroke="none" stroke-width="1" fill="none" fill-rule="evenodd">
        <g id="XX-Large-/-Home-P1" transform="translate(-1453.000000, -1184.000000)">
            <g id="Group-13" transform="translate(0.000000, 960.000000)">
                <g id="Group-6" transform="translate(1371.000000, 214.000000)">
                    <g id="storefront-24px" transform="translate(82.000000, 10.000000)">
                        <g id="Group">
                            <rect id="Rectangle" x="0" y="0" width="70" height="70"></rect>
                            <rect id="Rectangle" x="0" y="0" width="70" height="70"></rect>
                        </g>
                        <path d="M63.875,23.0125 L60.8125,13.1833333 C60.1708333,10.5583333 57.8958333,8.75 55.2416667,8.75 L14.7291667,8.75 C12.1041667,8.75 9.8,10.5875 9.1875,13.1833333 L6.125,23.0125 C4.78333333,28.7583333 8.60416667,32.0833333 8.75,32.2583333 L8.75,55.4166667 C8.75,58.625 11.375,61.25 14.5833333,61.25 L55.4166667,61.25 C58.625,61.25 61.25,58.625 61.25,55.4166667 L61.25,32.2583333 C64.5166667,28.9916667 64.4291667,25.2291667 63.875,23.0125 Z M37.9166667,14.5833333 L43.6333333,14.5833333 L45.2083333,24.85 C45.4708333,26.9208333 44.0708333,29.1666667 41.475,29.1666667 C39.5208333,29.1666667 37.9166667,27.4458333 37.9166667,25.3458333 L37.9166667,14.5833333 Z M18.7833333,25.8416667 C18.55,27.7375 17.0333333,29.1666667 15.2541667,29.1666667 C12.5416667,29.1666667 11.3166667,26.3375 11.7833333,24.3833333 L14.7291667,14.5833333 L20.475,14.5833333 L18.7833333,25.8416667 Z M32.0833333,25.3458333 C32.0833333,27.4458333 30.4791667,29.1666667 28.3208333,29.1666667 C26.1333333,29.1666667 24.5291667,27.125 24.7625,24.85 L26.3666667,14.5833333 L32.0833333,14.5833333 L32.0833333,25.3458333 Z M54.7458333,29.1666667 C52.9666667,29.1666667 51.4208333,27.7375 51.2166667,25.8416667 L49.525,14.5833333 L55.1541667,14.5541667 L58.2166667,24.3833333 C58.6833333,26.3375 57.4875,29.1666667 54.7458333,29.1666667 Z" id="Shape" fill="url(#linearGradient-1)" fill-rule="nonzero"></path>
                    </g>
                </g>
            </g>
        </g>
    </g>
</svg>