<?xml version="1.0" encoding="UTF-8"?>
<svg width="12px" height="14px" viewBox="0 0 12 14" version="1.1" xmlns="http://www.w3.org/2000/svg" xmlns:xlink="http://www.w3.org/1999/xlink">
    <title></title>
    <g id="Page-1" stroke="none" stroke-width="1" fill="none" fill-rule="evenodd">
        <g id="Desktop-Full-HD" transform="translate(-456.000000, -347.000000)" fill="#FFFFFF" fill-rule="nonzero">
            <path d="M467.3125,361 C467.5,361 467.661458,360.932292 467.796875,360.796875 C467.932292,360.661458 468,360.5 468,360.3125 L468,360.3125 L468,353.6875 C468,353.5 467.932292,353.338542 467.796875,353.203125 C467.661458,353.067708 467.5,353 467.3125,353 L467.3125,353 L466.625,353 L466.625,352.03125 C466.625,350.59375 466.177083,349.395833 465.28125,348.4375 C464.385417,347.479167 463.291667,347 462,347 C460.708333,347 459.614583,347.479167 458.71875,348.4375 C457.822917,349.395833 457.375,350.59375 457.375,352.03125 L457.375,352.03125 L457.375,353 L456.6875,353 C456.5,353 456.338542,353.067708 456.203125,353.203125 C456.067708,353.338542 456,353.5 456,353.6875 L456,353.6875 L456,360.3125 C456,360.5 456.067708,360.661458 456.203125,360.796875 C456.338542,360.932292 456.5,361 456.6875,361 L456.6875,361 L467.3125,361 Z M464.96875,353 L459.03125,353 L459.03125,352.03125 C459.03125,350.989583 459.322917,350.15625 459.90625,349.53125 L459.90625,349.53125 L459.90625,349.5 C460.46875,348.895833 461.166667,348.59375 462,348.59375 C462.833333,348.59375 463.53125,348.895833 464.09375,349.5 L464.09375,349.5 L464.09375,349.53125 C464.677083,350.15625 464.96875,350.989583 464.96875,352.03125 L464.96875,352.03125 L464.96875,353 Z" id=""></path>
        </g>
    </g>
</svg>