<?xml version="1.0" encoding="UTF-8"?>
<svg width="10px" height="19px" viewBox="0 0 10 19" version="1.1" xmlns="http://www.w3.org/2000/svg" xmlns:xlink="http://www.w3.org/1999/xlink">
    <title></title>
    <g id="Page-1" stroke="none" stroke-width="1" fill="none" fill-rule="evenodd">
        <g id="Desktop-Full-HD" transform="translate(-485.000000, -373.000000)" fill="#2C3E50" fill-rule="nonzero">
            <path d="M493.085938,391.132812 C493.294271,391.341146 493.502604,391.341146 493.710938,391.132812 L493.710938,391.132812 L494.882812,389.921875 C495.091146,389.713542 495.091146,389.505208 494.882812,389.296875 L494.882812,389.296875 L488.359375,382.5 L494.882812,375.703125 C495.091146,375.494792 495.091146,375.286458 494.882812,375.078125 L494.882812,375.078125 L493.710938,373.90625 C493.476562,373.697917 493.268229,373.684896 493.085938,373.867188 L493.085938,373.867188 L485.117188,382.1875 C485.039062,382.265625 485,382.369792 485,382.5 C485,382.630208 485.039062,382.734375 485.117188,382.8125 L485.117188,382.8125 L493.085938,391.132812 Z" id=""></path>
        </g>
    </g>
</svg>