<?xml version="1.0" encoding="UTF-8"?>
<svg width="18px" height="19px" viewBox="0 0 18 19" version="1.1" xmlns="http://www.w3.org/2000/svg" xmlns:xlink="http://www.w3.org/1999/xlink">
    <title></title>
    <g id="Page-1" stroke="none" stroke-width="1" fill="none" fill-rule="evenodd">
        <g id="Desktop-Full-HD" transform="translate(-453.000000, -372.000000)" fill="#FFFFFF" fill-rule="nonzero">
            <path d="M462,390.125 C463.242188,390.125 464.411133,389.890625 465.506836,389.421875 C466.602539,388.953125 467.557617,388.311523 468.37207,387.49707 C469.186523,386.682617 469.828125,385.727539 470.296875,384.631836 C470.765625,383.536133 471,382.367188 471,381.125 C471,379.882812 470.765625,378.713867 470.296875,377.618164 C469.828125,376.522461 469.186523,375.567383 468.37207,374.75293 C467.557617,373.938477 466.602539,373.296875 465.506836,372.828125 C464.411133,372.359375 463.242188,372.125 462,372.125 C460.757812,372.125 459.588867,372.359375 458.493164,372.828125 C457.397461,373.296875 456.442383,373.938477 455.62793,374.75293 C454.813477,375.567383 454.171875,376.522461 453.703125,377.618164 C453.234375,378.713867 453,379.882812 453,381.125 C453,382.367188 453.234375,383.536133 453.703125,384.631836 C454.171875,385.727539 454.813477,386.682617 455.62793,387.49707 C456.442383,388.311523 457.397461,388.953125 458.493164,389.421875 C459.588867,389.890625 460.757812,390.125 462,390.125 Z M462,389.017578 C460.910156,389.017578 459.887695,388.80957 458.932617,388.393555 C457.977539,387.977539 457.145508,387.412109 456.436523,386.697266 C455.727539,385.982422 455.165039,385.147461 454.749023,384.192383 C454.333008,383.237305 454.125,382.214844 454.125,381.125 C454.125,380.035156 454.333008,379.012695 454.749023,378.057617 C455.165039,377.102539 455.727539,376.270508 456.436523,375.561523 C457.145508,374.852539 457.977539,374.290039 458.932617,373.874023 C459.887695,373.458008 460.910156,373.25 462,373.25 C463.089844,373.25 464.112305,373.458008 465.067383,373.874023 C466.022461,374.290039 466.854492,374.852539 467.563477,375.561523 C468.272461,376.270508 468.834961,377.102539 469.250977,378.057617 C469.666992,379.012695 469.875,380.035156 469.875,381.125 C469.875,382.214844 469.666992,383.237305 469.250977,384.192383 C468.834961,385.147461 468.272461,385.982422 467.563477,386.697266 C466.854492,387.412109 466.022461,387.977539 465.067383,388.393555 C464.112305,388.80957 463.089844,389.017578 462,389.017578 Z M462.755859,384.710938 C462.826172,384.710938 462.896484,384.696289 462.966797,384.666992 C463.037109,384.637695 463.101562,384.599609 463.160156,384.552734 L466.482422,381.142578 L463.160156,377.732422 C463.042969,377.615234 462.908203,377.556641 462.755859,377.556641 C462.603516,377.556641 462.46875,377.615234 462.351562,377.732422 C462.246094,377.837891 462.193359,377.969727 462.193359,378.12793 C462.193359,378.286133 462.246094,378.417969 462.351562,378.523438 L464.390625,380.5625 L458.0625,380.5625 C457.898438,380.5625 457.763672,380.615234 457.658203,380.720703 C457.552734,380.826172 457.5,380.960938 457.5,381.125 C457.5,381.277344 457.552734,381.40918 457.658203,381.520508 C457.763672,381.631836 457.898438,381.6875 458.0625,381.6875 L464.425781,381.6875 L462.351562,383.744141 C462.246094,383.861328 462.193359,383.996094 462.193359,384.148438 C462.193359,384.300781 462.246094,384.435547 462.351562,384.552734 C462.410156,384.599609 462.474609,384.637695 462.544922,384.666992 C462.615234,384.696289 462.685547,384.710938 462.755859,384.710938 Z" id=""></path>
        </g>
    </g>
</svg>