<?xml version="1.0" encoding="UTF-8"?>
<svg width="11px" height="19px" viewBox="0 0 11 19" version="1.1" xmlns="http://www.w3.org/2000/svg" xmlns:xlink="http://www.w3.org/1999/xlink">
    <title></title>
    <g id="Page-1" stroke="none" stroke-width="1" fill="none" fill-rule="evenodd">
        <g id="Desktop-Full-HD" transform="translate(-504.000000, -373.000000)" fill="#2C3E50" fill-rule="nonzero">
            <path d="M512.085938,391.132812 C512.294271,391.341146 512.502604,391.341146 512.710938,391.132812 L512.710938,391.132812 L513.882812,389.921875 C514.091146,389.713542 514.091146,389.505208 513.882812,389.296875 L513.882812,389.296875 L507.359375,382.5 L513.882812,375.703125 C514.091146,375.494792 514.091146,375.286458 513.882812,375.078125 L513.882812,375.078125 L512.710938,373.90625 C512.476562,373.697917 512.268229,373.684896 512.085938,373.867188 L512.085938,373.867188 L504.117188,382.1875 C504.039062,382.265625 504,382.369792 504,382.5 C504,382.630208 504.039062,382.734375 504.117188,382.8125 L504.117188,382.8125 L512.085938,391.132812 Z" id="" transform="translate(509.019531, 382.514323) scale(-1, 1) translate(-509.019531, -382.514323) "></path>
        </g>
    </g>
</svg>