<?xml version="1.0" encoding="utf-8"?>
<!-- Generator: Adobe Illustrator 25.2.1, SVG Export Plug-In . SVG Version: 6.00 Build 0)  -->
<svg version="1.1" id="图层_1" xmlns="http://www.w3.org/2000/svg" xmlns:xlink="http://www.w3.org/1999/xlink" x="0px" y="0px"
	 viewBox="0 0 133.9 30.7" style="enable-background:new 0 0 133.9 30.7;" xml:space="preserve">
<style type="text/css">
	.st0{fill:#FFFFFF;}
</style>
<path class="st0" d="M87.9,17.7l-0.4-1.1h-2.5l-0.4,1.1h-1.6l2.5-6H87l2.5,6H87.9z M86.2,13.3l-0.8,2H87L86.2,13.3z"/>
<path class="st0" d="M94.4,17.7H93v-0.4c-0.4,0.4-0.9,0.6-1.4,0.6c-0.5,0-0.9-0.2-1.3-0.5c-0.3-0.4-0.5-0.9-0.5-1.4v-2.8h1.4v2.5
	c0,0.2,0.1,0.5,0.2,0.6c0.1,0.2,0.3,0.3,0.6,0.2c0.3,0,0.5-0.1,0.7-0.3c0.2-0.3,0.3-0.6,0.2-1v-2.1h1.4V17.7z"/>
<path class="st0" d="M98.8,17.5c-0.4,0.2-0.8,0.3-1.2,0.3c-0.5,0-1-0.1-1.3-0.5c-0.3-0.4-0.5-0.8-0.5-1.3v-1.7h-0.8v-1.1h0.8v-1.3
	h1.4v1.3h1.3v1.1h-1.3v1.6c0,0.4,0.2,0.7,0.6,0.7c0.2,0,0.5-0.1,0.7-0.2L98.8,17.5z"/>
<path class="st0" d="M103.2,13.7c0.9,0.9,1,2.4,0,3.4c0,0,0,0,0,0c-0.5,0.4-1.1,0.7-1.8,0.7c-0.7,0-1.3-0.2-1.8-0.7
	c-0.9-0.9-1-2.4,0-3.4c0,0,0,0,0,0c0.5-0.4,1.1-0.7,1.8-0.7C102.1,13,102.7,13.2,103.2,13.7z M102.2,16.2c0.4-0.5,0.4-1.2,0-1.7
	c-0.2-0.2-0.5-0.3-0.8-0.3c-0.3,0-0.6,0.1-0.8,0.3c-0.2,0.2-0.4,0.5-0.3,0.8c0,0.3,0.1,0.6,0.3,0.8c0.2,0.2,0.5,0.3,0.8,0.3
	C101.7,16.6,102,16.5,102.2,16.2z"/>
<path class="st0" d="M112.9,14.1c0,0.2,0,0.4,0,0.6c0,0.8-0.3,1.7-0.9,2.3c-0.6,0.6-1.4,0.9-2.2,0.9c-0.9,0-1.7-0.3-2.3-0.9
	c-0.6-0.6-1-1.4-0.9-2.2c0-0.8,0.3-1.6,0.9-2.2c0.6-0.6,1.4-0.9,2.3-0.9c0.6,0,1.3,0.2,1.8,0.5c0.5,0.3,0.9,0.8,1.1,1.3l-1.4,0.4
	c-0.3-0.6-0.9-0.9-1.5-0.9c-0.5,0-0.9,0.2-1.2,0.5c-0.3,0.3-0.5,0.8-0.5,1.3c0,0.5,0.2,0.9,0.5,1.3c0.6,0.6,1.6,0.7,2.3,0.2
	c0.3-0.2,0.5-0.5,0.6-0.8h-1.8v-1.3H112.9z"/>
<path class="st0" d="M117.1,13.1l-0.1,1.4h-0.3c-1,0-1.6,0.6-1.6,1.7v1.4h-1.4v-4.5h1.4V14c0.3-0.6,0.9-0.9,1.6-0.9
	C116.9,13.1,117,13.1,117.1,13.1z"/>
<path class="st0" d="M121.6,13.7c0.9,0.9,1,2.4,0,3.4c0,0,0,0,0,0c-0.5,0.4-1.1,0.7-1.8,0.7c-0.7,0-1.3-0.2-1.8-0.7
	c-0.9-0.9-1-2.4,0-3.4c0,0,0,0,0,0c0.5-0.4,1.1-0.7,1.8-0.7C120.5,13,121.2,13.2,121.6,13.7z M120.6,16.2c0.2-0.2,0.3-0.5,0.3-0.8
	c0-0.3-0.1-0.6-0.3-0.8c-0.2-0.2-0.5-0.3-0.8-0.3c-0.3,0-0.6,0.1-0.8,0.3c-0.4,0.5-0.4,1.2,0,1.7c0.2,0.2,0.5,0.3,0.8,0.3
	C120.2,16.6,120.5,16.5,120.6,16.2L120.6,16.2z"/>
<path class="st0" d="M127.6,17.7h-1.4v-0.4c-0.4,0.4-0.9,0.6-1.4,0.6c-0.5,0-0.9-0.2-1.3-0.5c-0.3-0.4-0.5-0.9-0.5-1.4v-2.8h1.4v2.5
	c0,0.2,0.1,0.5,0.2,0.6c0.1,0.2,0.3,0.3,0.6,0.2c0.3,0,0.5-0.1,0.7-0.3c0.2-0.3,0.3-0.6,0.2-1v-2.1h1.4V17.7z"/>
<path class="st0" d="M133.1,13.7c0.4,0.5,0.7,1.1,0.6,1.7c0,0.6-0.2,1.3-0.6,1.7c-0.4,0.4-1,0.7-1.6,0.7c-0.5,0-1-0.2-1.4-0.5v1.9
	h-1.4v-6.1h1.4v0.4c0.4-0.3,0.9-0.5,1.4-0.5C132.1,13,132.7,13.2,133.1,13.7z M132,16.2c0.4-0.5,0.4-1.2,0-1.7
	c-0.2-0.2-0.5-0.3-0.8-0.3c-0.3,0-0.6,0.1-0.8,0.3c-0.2,0.2-0.3,0.5-0.3,0.8c0,0.3,0.1,0.6,0.3,0.8C130.9,16.7,131.6,16.7,132,16.2
	C132,16.2,132,16.2,132,16.2L132,16.2z"/>
<path class="st0" d="M91.8,25.3c-0.1,0.7-0.5,1.3-1,1.8c-1.3,0.9-3.1,0.8-4.3-0.3c-1.2-1.2-1.2-3.2,0-4.5c0,0,0,0,0,0
	c0.6-0.6,1.4-0.9,2.3-0.9c0.7,0,1.4,0.2,2,0.6c0.6,0.4,0.9,1,1.1,1.7L90.4,24c-0.1-0.4-0.3-0.7-0.6-1c-0.7-0.5-1.6-0.4-2.2,0.2
	c-0.7,0.7-0.7,1.8,0,2.6c0.3,0.3,0.8,0.5,1.2,0.5c0.4,0,0.7-0.1,1-0.3c0.3-0.3,0.5-0.6,0.6-1L91.8,25.3z"/>
<path class="st0" d="M96.6,23.6c0.5,0.4,0.7,1.1,0.7,1.7c0,0.6-0.2,1.3-0.7,1.7c-0.5,0.4-1.1,0.7-1.8,0.7c-0.7,0-1.3-0.2-1.8-0.7
	c-0.5-0.4-0.7-1.1-0.7-1.7c0-0.6,0.2-1.3,0.7-1.7c0.5-0.4,1.1-0.7,1.8-0.7C95.5,22.9,96.1,23.1,96.6,23.6z M95.6,26.1
	c0.4-0.5,0.4-1.2,0-1.7c-0.2-0.2-0.5-0.3-0.8-0.3c-0.3,0-0.6,0.1-0.8,0.3c-0.2,0.2-0.4,0.5-0.3,0.8c0,0.3,0.1,0.6,0.3,0.9
	c0.2,0.2,0.5,0.3,0.8,0.3C95.1,26.5,95.4,26.4,95.6,26.1L95.6,26.1z"/>
<path class="st0" d="M105.2,23.4c0.3,0.4,0.5,0.8,0.5,1.3v2.8h-1.4V25c0-0.2-0.1-0.4-0.2-0.6c-0.1-0.1-0.3-0.2-0.5-0.2
	c-0.2,0-0.5,0.1-0.6,0.3c-0.2,0.2-0.3,0.5-0.2,0.9v2.2h-1.4V25c0-0.2-0.1-0.4-0.2-0.6c-0.1-0.1-0.3-0.2-0.6-0.2
	c-0.2,0-0.5,0.1-0.6,0.3c-0.2,0.3-0.2,0.5-0.2,0.9v2.2h-1.4V23h1.4v0.4c0.3-0.4,0.8-0.6,1.3-0.5c0.6,0,1.2,0.3,1.5,0.8
	c0.4-0.5,1-0.8,1.6-0.8C104.4,22.9,104.8,23.1,105.2,23.4z"/>
<path class="st0" d="M113.7,23.4c0.3,0.4,0.5,0.8,0.5,1.3v2.8h-1.4V25c0-0.2-0.1-0.4-0.2-0.6c-0.1-0.1-0.3-0.2-0.5-0.2
	c-0.2,0-0.5,0.1-0.6,0.3c-0.2,0.2-0.3,0.5-0.2,0.9v2.2h-1.4V25c0-0.2-0.1-0.4-0.2-0.6c-0.1-0.1-0.3-0.2-0.6-0.2
	c-0.2,0-0.5,0.1-0.6,0.3c-0.2,0.3-0.2,0.5-0.2,0.9v2.2h-1.4V23h1.4v0.4c0.3-0.4,0.8-0.6,1.3-0.5c0.6,0,1.2,0.3,1.5,0.8
	c0.4-0.5,1-0.8,1.6-0.8C113,22.9,113.4,23.1,113.7,23.4z"/>
<path class="st0" d="M119.6,25.7h-3.3c0,0.2,0.2,0.5,0.3,0.6c0.2,0.2,0.4,0.2,0.6,0.2c0.4,0,0.8-0.2,1-0.5l1.3,0.3
	c-0.2,0.4-0.5,0.8-0.9,1c-0.4,0.2-0.9,0.4-1.4,0.4c-0.6,0-1.2-0.2-1.7-0.7c-0.9-1-0.9-2.5,0-3.5c0.5-0.4,1.1-0.7,1.7-0.7
	c0.6,0,1.2,0.2,1.7,0.7c0.5,0.5,0.7,1.1,0.7,1.7L119.6,25.7z M116.7,24.3c-0.2,0.1-0.3,0.3-0.4,0.5h1.9c-0.1-0.2-0.2-0.4-0.3-0.5
	c-0.2-0.1-0.4-0.2-0.6-0.2C117.1,24.1,116.9,24.1,116.7,24.3z"/>
<path class="st0" d="M123.7,23l-0.1,1.4h-0.3c-1,0-1.6,0.6-1.6,1.7v1.4h-1.4V23h1.4v0.9c0.3-0.6,0.9-0.9,1.6-0.9
	C123.5,22.9,123.6,23,123.7,23z"/>
<path class="st0" d="M127.4,25.6l1.3,0.3c-0.1,0.5-0.4,1-0.8,1.3c-0.4,0.3-1,0.5-1.5,0.5c-0.7,0-1.3-0.2-1.8-0.7c-1-0.9-1-2.5,0-3.4
	c0,0,0,0,0,0c0.5-0.4,1.1-0.7,1.8-0.7c0.5,0,1,0.2,1.5,0.5c0.4,0.3,0.7,0.8,0.8,1.3l-1.3,0.4c0-0.2-0.2-0.4-0.3-0.6
	c-0.2-0.1-0.4-0.2-0.6-0.2c-0.3,0-0.6,0.1-0.8,0.3c-0.4,0.5-0.4,1.2,0,1.6c0.2,0.2,0.5,0.3,0.8,0.3
	C126.9,26.5,127.3,26.1,127.4,25.6z"/>
<path class="st0" d="M133.9,25.7h-3.3c0,0.2,0.2,0.5,0.4,0.6c0.2,0.2,0.4,0.2,0.6,0.2c0.4,0,0.8-0.2,1-0.5l1.3,0.3
	c-0.2,0.4-0.5,0.8-0.9,1c-0.4,0.2-0.9,0.4-1.4,0.4c-0.6,0-1.2-0.2-1.7-0.7c-0.9-1-0.9-2.5,0-3.5c0.5-0.4,1.1-0.7,1.7-0.7
	c0.6,0,1.2,0.2,1.6,0.7c0.5,0.5,0.7,1.1,0.7,1.7L133.9,25.7z M131,24.3c-0.2,0.1-0.3,0.3-0.4,0.5h1.9c-0.1-0.2-0.2-0.4-0.3-0.5
	c-0.2-0.1-0.4-0.2-0.6-0.2C131.4,24.1,131.2,24.1,131,24.3z"/>
<path class="st0" d="M13.1,30c4.6,0.6,9.3-1,12.6-4.3v2.9c0,1.1,0.9,2,2,2h0.4c1.1,0,2-0.9,2-2v-2.9c5.8,5.9,15.3,5.9,21.2,0.1
	c0.9-0.9,1.6-1.8,2.3-2.9C58,30,67.2,32.3,74.3,28c0.9-0.5,1.7-1.2,2.5-1.9c0.8-0.7,0.9-2,0.1-2.8c-0.1-0.1-0.2-0.2-0.3-0.2
	l-0.4-0.3c-0.8-0.6-1.9-0.5-2.6,0.2c-1.9,1.8-4.4,2.8-7,2.8c-5.9,0.2-10.8-4.4-11-10.2C55.5,9.6,60,4.6,65.9,4.4c0.2,0,0.4,0,0.6,0
	c2.7,0,5.3,1,7.3,2.9c0.7,0.6,1.8,0.7,2.6,0.1l0.3-0.3c0.9-0.7,1-2,0.3-2.8c-0.1-0.1-0.1-0.1-0.2-0.2c-6.1-5.7-15.6-5.4-21.3,0.7
	c-2.1,2.2-3.4,5.1-3.9,8.1h-8.9c-1.1,0-2,0.9-2,2v0.4c0,1.1,0.9,2,2,2h8.4c-1.2,5.7-6.9,9.4-12.6,8.1c-5.7-1.2-9.4-6.9-8.1-12.6
	S37.3,3.5,43,4.7c1.9,0.4,3.7,1.4,5.1,2.7c0.7,0.7,1.8,0.7,2.6,0.1l0.3-0.2c0.9-0.7,1-1.9,0.3-2.8c-0.1-0.1-0.1-0.1-0.2-0.2
	c-6-5.8-15.5-5.6-21.3,0.4c-0.8,0.8-1.5,1.7-2,2.6C23.7,0.2,14.4-2.1,7.3,2.1s-9.4,13.5-5.2,20.7C4.5,26.8,8.5,29.4,13.1,30z
	 M13.3,4.6c5.8-1,11.3,2.9,12.3,8.7s-2.9,11.3-8.7,12.3S5.6,22.6,4.6,16.9c-0.2-1.2-0.2-2.4,0-3.6C5.4,8.8,8.8,5.4,13.3,4.6
	L13.3,4.6z"/>
</svg>
