<?xml version="1.0" encoding="UTF-8"?>
<svg width="36px" height="36px" viewBox="0 0 36 36" version="1.1" xmlns="http://www.w3.org/2000/svg" xmlns:xlink="http://www.w3.org/1999/xlink">
    <title>icon-collaboration</title>
    <g id="icon-collaboration" stroke="none" stroke-width="1" fill="none" fill-rule="evenodd">
        <g id="cenports_illustration_Invoice-複本-4" transform="translate(2.000000, 1.000000)" fill-rule="nonzero">
            <path d="M5.29238103,4.50779344 L5.29238103,29.4922066 L27.1402192,17 L5.29238103,4.50779344 Z M7.18061111,7.76238889 L23.3334444,17 L7.18061111,26.2366667 L7.18061111,7.76238889 Z" id="Path" fill="#6F1C5A"></path>
            <ellipse id="Oval" fill="#FFFFFF" cx="6.28005799" cy="27.7929012" rx="5.31399729" ry="5.26265432"></ellipse>
            <ellipse id="Oval" fill="#FFFFFF" cx="25.1546558" cy="17" rx="5.31399729" ry="5.26265432"></ellipse>
            <ellipse id="Oval" fill="#FFFFFF" cx="6.28005799" cy="6.20709877" rx="5.31399729" ry="5.26265432"></ellipse>
            <path d="M6.28005799,21.5858025 C2.82565763,21.5858025 0.0216162602,24.3627516 0.0216162602,27.7929012 C0.0216162602,31.2230508 2.82565763,34 6.28005799,34 C9.73445836,34 12.5384997,31.2230508 12.5384997,27.7929012 C12.5384997,24.3627516 9.73445836,21.5858025 6.28005799,21.5858025 Z M6.28005799,23.4746914 C8.69533695,23.4746914 10.6496108,25.4100834 10.6496108,27.7929012 C10.6496108,30.1757191 8.69533695,32.1111111 6.28005799,32.1111111 C3.86477903,32.1111111 1.91050515,30.1757191 1.91050515,27.7929012 C1.91050515,25.4100834 3.86477903,23.4746914 6.28005799,23.4746914 Z" id="Oval" fill="#6F1C5A"></path>
            <path d="M25.1546558,10.7929012 C21.7002555,10.7929012 18.8962141,13.5698504 18.8962141,17 C18.8962141,20.4301496 21.7002555,23.2070988 25.1546558,23.2070988 C28.6090562,23.2070988 31.4130976,20.4301496 31.4130976,17 C31.4130976,13.5698504 28.6090562,10.7929012 25.1546558,10.7929012 Z M25.1546558,12.6817901 C27.5699348,12.6817901 29.5242087,14.6171821 29.5242087,17 C29.5242087,19.3828179 27.5699348,21.3182099 25.1546558,21.3182099 C22.7393769,21.3182099 20.785103,19.3828179 20.785103,17 C20.785103,14.6171821 22.7393769,12.6817901 25.1546558,12.6817901 Z" id="Oval" fill="#6F1C5A"></path>
            <path d="M6.28005799,0 C2.82565763,0 0.0216162602,2.77694918 0.0216162602,6.20709877 C0.0216162602,9.63724835 2.82565763,12.4141975 6.28005799,12.4141975 C9.73445836,12.4141975 12.5384997,9.63724835 12.5384997,6.20709877 C12.5384997,2.77694918 9.73445836,0 6.28005799,0 Z M6.28005799,1.88888889 C8.69533695,1.88888889 10.6496108,3.8242809 10.6496108,6.20709877 C10.6496108,8.58991663 8.69533695,10.5253086 6.28005799,10.5253086 C3.86477903,10.5253086 1.91050515,8.58991663 1.91050515,6.20709877 C1.91050515,3.8242809 3.86477903,1.88888889 6.28005799,1.88888889 Z" id="Oval" fill="#6F1C5A"></path>
        </g>
    </g>
</svg>