<?xml version="1.0" encoding="UTF-8"?>
<svg width="36px" height="36px" viewBox="0 0 36 36" version="1.1" xmlns="http://www.w3.org/2000/svg" xmlns:xlink="http://www.w3.org/1999/xlink">
    <title>icon-smile</title>
    <g id="icon-smile" stroke="none" stroke-width="1" fill="none" fill-rule="evenodd">
        <g id="smile-regular" fill="#B6258F" fill-rule="nonzero">
            <path d="M18,0 C8.05645161,0 0,8.05645161 0,18 C0,27.9435484 8.05645161,36 18,36 C27.9435484,36 36,27.9435484 36,18 C36,8.05645161 27.9435484,0 18,0 Z M18,32.516129 C9.99435484,32.516129 3.48387097,26.0056452 3.48387097,18 C3.48387097,9.99435484 9.99435484,3.48387097 18,3.48387097 C26.0056452,3.48387097 32.516129,9.99435484 32.516129,18 C32.516129,26.0056452 26.0056452,32.516129 18,32.516129 Z M12.1935484,16.8387097 C13.4782258,16.8387097 14.516129,15.8008065 14.516129,14.516129 C14.516129,13.2314516 13.4782258,12.1935484 12.1935484,12.1935484 C10.908871,12.1935484 9.87096774,13.2314516 9.87096774,14.516129 C9.87096774,15.8008065 10.908871,16.8387097 12.1935484,16.8387097 Z M23.8064516,16.8387097 C25.091129,16.8387097 26.1290323,15.8008065 26.1290323,14.516129 C26.1290323,13.2314516 25.091129,12.1935484 23.8064516,12.1935484 C22.5217742,12.1935484 21.483871,13.2314516 21.483871,14.516129 C21.483871,15.8008065 22.5217742,16.8387097 23.8064516,16.8387097 Z M24.0967742,22.1080645 C22.5870968,23.9225806 20.358871,24.9677419 18,24.9677419 C15.641129,24.9677419 13.4129032,23.9298387 11.9032258,22.1080645 C11.2862903,21.3677419 10.1830645,21.2733871 9.45,21.8830645 C8.70967742,22.5 8.61532258,23.5959677 9.225,24.3362903 C11.4024194,26.9491935 14.6032258,28.4443548 18,28.4443548 C21.3967742,28.4443548 24.5975806,26.9491935 26.775,24.3362903 C27.3919355,23.5959677 27.2903226,22.5 26.55,21.8830645 C25.8169355,21.2733871 24.7137097,21.3677419 24.0967742,22.1080645 L24.0967742,22.1080645 Z" id="Shape"></path>
        </g>
    </g>
</svg>