<?xml version="1.0" encoding="UTF-8"?>
<svg width="36px" height="36px" viewBox="0 0 36 36" version="1.1" xmlns="http://www.w3.org/2000/svg" xmlns:xlink="http://www.w3.org/1999/xlink">
    <title>icon-innovation</title>
    <g id="icon-innovation" stroke="none" stroke-width="1" fill="none" fill-rule="evenodd">
        <path d="M18.0332031,35.125 C19.6048177,35.125 20.8776042,34.6269531 21.8515625,33.6308594 C22.8255208,32.6347656 23.3125,31.328776 23.3125,29.7128906 L23.3125,26.625 L23.2792969,26.625 C23.2792969,26.6028646 23.2848307,26.5807292 23.2958984,26.5585938 C23.3069661,26.5364583 23.3125,26.5143229 23.3125,26.4921875 L23.3125,24.6992188 C23.3125,24.0572917 23.5227865,23.5094401 23.9433594,23.0556641 C24.3639323,22.601888 24.9283854,22.0651042 25.6367188,21.4453125 C26.5885417,20.6041667 27.5071615,19.5748698 28.3925781,18.3574219 C29.2779948,17.139974 29.7207031,15.3691406 29.7207031,13.0449219 C29.7207031,11.406901 29.4163411,9.86295573 28.8076172,8.41308594 C28.1988932,6.96321615 27.3688151,5.7014974 26.3173828,4.62792969 C25.2659505,3.55436198 24.0263672,2.70214844 22.5986328,2.07128906 C21.1708984,1.44042969 19.6380208,1.125 18,1.125 C16.3619792,1.125 14.8291016,1.44042969 13.4013672,2.07128906 C11.9736328,2.70214844 10.7340495,3.55436198 9.68261719,4.62792969 C8.6311849,5.7014974 7.80110677,6.96321615 7.19238281,8.41308594 C6.58365885,9.86295573 6.27929688,11.406901 6.27929688,13.0449219 C6.27929688,15.5240885 6.76627604,17.4332682 7.74023438,18.7724609 C8.71419271,20.1116536 9.67708333,21.2128906 10.6289062,22.0761719 C11.2486979,22.6295573 11.7467448,23.0999349 12.1230469,23.4873047 C12.499349,23.8746745 12.6875,24.2786458 12.6875,24.6992188 L12.6875,26.4921875 C12.6875,26.5143229 12.6930339,26.5364583 12.7041016,26.5585938 C12.7151693,26.5807292 12.7207031,26.6028646 12.7207031,26.625 L12.6875,26.625 L12.6875,29.7128906 C12.6875,31.328776 13.1744792,32.6347656 14.1484375,33.6308594 C15.1223958,34.6269531 16.4173177,35.125 18.0332031,35.125 Z M17.9667969,26.6582031 C17.0592448,26.6582031 16.3619792,26.5917969 15.875,26.4589844 C15.3880208,26.3261719 15.0338542,26.1933594 14.8125,26.0605469 L14.8125,24.6992188 C14.8125,23.7916667 14.5192057,23.0169271 13.9326172,22.375 C13.3460286,21.7330729 12.7207031,21.1132812 12.0566406,20.515625 C11.1490885,19.6966146 10.3134766,18.7503255 9.54980469,17.6767578 C8.78613281,16.6031901 8.40429688,15.0592448 8.40429688,13.0449219 C8.40429688,11.6946615 8.64778646,10.4274089 9.13476562,9.24316406 C9.62174479,8.05891927 10.296875,7.01855469 11.1601562,6.12207031 C12.0234375,5.22558594 13.0416667,4.52278646 14.2148438,4.01367188 C15.3880208,3.50455729 16.6497396,3.25 18,3.25 C19.3502604,3.25 20.6119792,3.50455729 21.7851562,4.01367188 C22.9583333,4.52278646 23.9765625,5.22558594 24.8398438,6.12207031 C25.703125,7.01855469 26.3782552,8.05891927 26.8652344,9.24316406 C27.3522135,10.4274089 27.5957031,11.6946615 27.5957031,13.0449219 C27.5957031,14.8821615 27.258138,16.2822266 26.5830078,17.2451172 C25.9078776,18.2080078 25.1276042,19.0768229 24.2421875,19.8515625 C23.5117188,20.4713542 22.819987,21.1464844 22.1669922,21.8769531 C21.5139974,22.6074219 21.1875,23.5481771 21.1875,24.6992188 L21.1875,26.0273438 C20.921875,26.1601562 20.5400391,26.2985026 20.0419922,26.4423828 C19.5439453,26.586263 18.8522135,26.6582031 17.9667969,26.6582031 Z M17.9667969,33 C16.9707031,33 16.1959635,32.7067057 15.6425781,32.1201172 C15.0891927,31.5335286 14.8125,30.7311198 14.8125,29.7128906 L14.8125,28.2851562 C15.1888021,28.4179688 15.6370443,28.5286458 16.1572266,28.6171875 C16.6774089,28.7057292 17.2916667,28.75 18,28.75 C18.6861979,28.75 19.2949219,28.7001953 19.8261719,28.6005859 C20.3574219,28.5009766 20.8111979,28.3847656 21.1875,28.2519531 L21.1875,29.7128906 C21.1875,30.7532552 20.9052734,31.5611979 20.3408203,32.1367188 C19.7763672,32.7122396 18.985026,33 17.9667969,33 Z" id="î¶" fill="#6F1C5A" fill-rule="nonzero"></path>
    </g>
</svg>