<?xml version="1.0" encoding="UTF-8"?>
<svg width="36px" height="36px" viewBox="0 0 36 36" version="1.1" xmlns="http://www.w3.org/2000/svg" xmlns:xlink="http://www.w3.org/1999/xlink">
    <title>icon-accountability</title>
    <g id="icon-accountability" stroke="none" stroke-width="1" fill="none" fill-rule="evenodd">
        <path d="M10.4296875,35.125 C10.6289062,35.125 10.8115234,35.0751953 10.9775391,34.9755859 C11.1435547,34.8759766 11.2708333,34.7376302 11.359375,34.5605469 L16.8046875,24.4335938 C17.0039062,24.4557292 17.203125,24.4723307 17.4023438,24.4833984 C17.6015625,24.4944661 17.8007812,24.5 18,24.5 C18.1770833,24.5 18.3597005,24.4944661 18.5478516,24.4833984 C18.7360026,24.4723307 18.9186198,24.4557292 19.0957031,24.4335938 L24.640625,34.5605469 C24.7291667,34.7376302 24.8564453,34.8759766 25.0224609,34.9755859 C25.1884766,35.0751953 25.3710938,35.125 25.5703125,35.125 L25.6699219,35.125 L25.6699219,35.125 C25.8691406,35.1028646 26.0517578,35.0309245 26.2177734,34.9091797 C26.3837891,34.7874349 26.5,34.6269531 26.5664062,34.4277344 L28.3925781,29.3476562 L33.7382812,30.5429688 C33.9375,30.609375 34.1367188,30.6038411 34.3359375,30.5263672 C34.5351562,30.4488932 34.6901042,30.3326823 34.8007812,30.1777344 C34.9335938,30.000651 35.0110677,29.8069661 35.0332031,29.5966797 C35.0553385,29.3863932 35.0110677,29.1927083 34.9003906,29.015625 L28.6914062,17.5273438 C29.0013021,16.796875 29.2447917,16.038737 29.421875,15.2529297 C29.5989583,14.4671224 29.6875,13.6536458 29.6875,12.8125 C29.6875,11.1966146 29.3776042,9.68033854 28.7578125,8.26367188 C28.1380208,6.84700521 27.3024089,5.60742188 26.2509766,4.54492188 C25.1995443,3.48242188 23.9654948,2.6468099 22.5488281,2.03808594 C21.1321615,1.42936198 19.6158854,1.125 18,1.125 C16.3841146,1.125 14.8678385,1.42936198 13.4511719,2.03808594 C12.0345052,2.6468099 10.7949219,3.48242188 9.73242188,4.54492188 C8.66992188,5.60742188 7.8343099,6.84700521 7.22558594,8.26367188 C6.61686198,9.68033854 6.3125,11.1966146 6.3125,12.8125 C6.3125,13.6757812 6.40104167,14.5113932 6.578125,15.3193359 C6.75520833,16.1272786 7.00976562,16.8964844 7.34179688,17.6269531 L1.09960938,29.015625 C0.988932292,29.1927083 0.944661458,29.3863932 0.966796875,29.5966797 C0.988932292,29.8069661 1.06640625,29.9895833 1.19921875,30.1445312 C1.30989583,30.3216146 1.46484375,30.4488932 1.6640625,30.5263672 C1.86328125,30.6038411 2.0625,30.609375 2.26171875,30.5429688 L7.60742188,29.3476562 L9.43359375,34.4277344 C9.5,34.6269531 9.61621094,34.7874349 9.78222656,34.9091797 C9.94824219,35.0309245 10.1419271,35.1028646 10.3632812,35.125 L10.4296875,35.125 L10.4296875,35.125 Z M18,22.375 C16.671875,22.375 15.4322917,22.1204427 14.28125,21.6113281 C13.1302083,21.1022135 12.117513,20.4160156 11.2431641,19.5527344 C10.3688151,18.6894531 9.68261719,17.6767578 9.18457031,16.5146484 C8.68652344,15.3525391 8.4375,14.1184896 8.4375,12.8125 C8.4375,11.5065104 8.68652344,10.2724609 9.18457031,9.11035156 C9.68261719,7.94824219 10.3688151,6.93554688 11.2431641,6.07226562 C12.117513,5.20898438 13.1302083,4.52278646 14.28125,4.01367188 C15.4322917,3.50455729 16.671875,3.25 18,3.25 C19.3059896,3.25 20.5400391,3.50455729 21.7021484,4.01367188 C22.8642578,4.52278646 23.8769531,5.20898438 24.7402344,6.07226562 C25.6035156,6.93554688 26.2841797,7.94824219 26.7822266,9.11035156 C27.2802734,10.2724609 27.5292969,11.5065104 27.5292969,12.8125 C27.5292969,14.1184896 27.2802734,15.3525391 26.7822266,16.5146484 C26.2841797,17.6767578 25.6035156,18.6894531 24.7402344,19.5527344 C23.8769531,20.4160156 22.8642578,21.1022135 21.7021484,21.6113281 C20.5400391,22.1204427 19.3059896,22.375 18,22.375 Z M25.3710938,31.4726562 L21.2871094,24.0351562 C22.5266927,23.6588542 23.6722005,23.094401 24.7236328,22.3417969 C25.7750651,21.5891927 26.6770833,20.703776 27.4296875,19.6855469 L31.9121094,27.953125 L27.9609375,27.0566406 C27.6953125,26.9902344 27.4462891,27.0234375 27.2138672,27.15625 C26.9814453,27.2890625 26.8098958,27.4772135 26.6992188,27.7207031 L25.3710938,31.4726562 Z M10.6289063,31.4394531 L9.30078125,27.7207031 C9.19010417,27.4772135 9.01855469,27.2890625 8.78613281,27.15625 C8.55371094,27.0234375 8.3046875,26.9902344 8.0390625,27.0566406 L4.08789063,27.953125 L8.60351563,19.7519531 C9.33398438,20.7480469 10.2138672,21.6113281 11.2431641,22.3417969 C12.2724609,23.0722656 13.3958333,23.625651 14.6132813,24.0019531 L10.6289063,31.4394531 Z" id="" fill="#6F1C5A" fill-rule="nonzero"></path>
    </g>
</svg>