<?xml version="1.0" encoding="UTF-8"?>
<svg width="36px" height="36px" viewBox="0 0 36 36" version="1.1" xmlns="http://www.w3.org/2000/svg" xmlns:xlink="http://www.w3.org/1999/xlink">
    <title>icon-transparency</title>
    <g id="icon-transparency" stroke="none" stroke-width="1" fill="none" fill-rule="evenodd">
        <path d="M26.375,33.5 C26.6041667,33.5 26.8333333,33.46875 27.0625,33.40625 C27.2916667,33.34375 27.5104167,33.2395833 27.71875,33.09375 C28.0729167,32.84375 28.3385417,32.5208333 28.515625,32.125 C28.6927083,31.7291667 28.7395833,31.3229167 28.65625,30.90625 L27.25,22.4375 L33.34375,16.34375 C33.65625,16.03125 33.859375,15.671875 33.953125,15.265625 C34.046875,14.859375 34.03125,14.4583333 33.90625,14.0625 C33.7604167,13.6458333 33.5208333,13.3020833 33.1875,13.03125 C32.8541667,12.7604167 32.4791667,12.59375 32.0625,12.53125 L23.71875,11.3125 L20.09375,3.78125 C19.90625,3.38541667 19.625,3.07291667 19.25,2.84375 C18.875,2.61458333 18.4583333,2.5 18,2.5 C17.5416667,2.5 17.125,2.61458333 16.75,2.84375 C16.375,3.07291667 16.09375,3.38541667 15.90625,3.78125 L12.28125,11.3125 L3.9375,12.53125 C3.52083333,12.59375 3.14583333,12.765625 2.8125,13.046875 C2.47916667,13.328125 2.23958333,13.6666667 2.09375,14.0625 C1.96875,14.4583333 1.953125,14.859375 2.046875,15.265625 C2.140625,15.671875 2.34375,16.03125 2.65625,16.34375 L8.75,22.4375 L7.34375,30.90625 C7.26041667,31.3229167 7.30729167,31.7291667 7.484375,32.125 C7.66145833,32.5208333 7.92708333,32.84375 8.28125,33.09375 C8.48958333,33.2395833 8.703125,33.34375 8.921875,33.40625 C9.140625,33.46875 9.375,33.5 9.625,33.5 C9.8125,33.5 10,33.4791667 10.1875,33.4375 C10.375,33.3958333 10.5520833,33.3229167 10.71875,33.21875 L18,29.3125 L25.25,33.21875 C25.4375,33.3229167 25.625,33.3958333 25.8125,33.4375 C26,33.4791667 26.1875,33.5 26.375,33.5 Z M26.65625,31.6875 L18,27.0625 L9.34375,31.6875 L10.78125,23.25 L11,21.84375 L3.9375,14.78125 L13.6875,13.34375 L14.34375,12 L18,4.40625 L22.28125,13.34375 L32.0625,14.78125 L25,21.84375 L25.21875,23.25 L26.65625,31.6875 Z" id="" fill="#6F1C5A" fill-rule="nonzero"></path>
    </g>
</svg>