<?xml version="1.0" encoding="UTF-8"?>
<svg width="14px" height="8px" viewBox="0 0 14 8" version="1.1" xmlns="http://www.w3.org/2000/svg" xmlns:xlink="http://www.w3.org/1999/xlink">
    <!-- Generator: Sketch 57.1 (83088) - https://sketch.com -->
    <title>icon/angle_down</title>
    <desc>Created with Sketch.</desc>
    <g id="Mockup-v3" stroke="none" stroke-width="1" fill="none" fill-rule="evenodd">
        <g id="A0-Guideline" transform="translate(-1145.000000, -2069.000000)" fill="#111112" fill-rule="nonzero">
            <g id="icon/angle_down" transform="translate(1145.000000, 2069.000000)">
                <path d="M14,1.14089347 C14,1.25085911 13.9438878,1.37457045 13.8597194,1.45704467 L7.32264529,7.86254296 C7.23847695,7.94501718 7.11222445,8 7,8 C6.88777555,8 6.76152305,7.94501718 6.67735471,7.86254296 L0.140280561,1.45704467 C0.0561122244,1.37457045 0,1.25085911 0,1.14089347 C0,1.03092784 0.0561122244,0.907216495 0.140280561,0.824742268 L0.841683367,0.137457045 C0.925851703,0.0549828179 1.03807615,0 1.16432866,0 C1.27655311,0 1.40280561,0.0549828179 1.48697395,0.137457045 L7,5.5395189 L12.5130261,0.137457045 C12.5971944,0.0549828179 12.7234469,0 12.8356713,0 C12.9478958,0 13.0741483,0.0549828179 13.1583166,0.137457045 L13.8597194,0.824742268 C13.9438878,0.907216495 14,1.03092784 14,1.14089347 Z" id=""></path>
            </g>
        </g>
    </g>
</svg>