<?xml version="1.0" encoding="UTF-8"?>
<svg width="36px" height="36px" viewBox="0 0 36 36" version="1.1" xmlns="http://www.w3.org/2000/svg" xmlns:xlink="http://www.w3.org/1999/xlink">
    <title>icon-meh</title>
    <g id="icon-meh" stroke="none" stroke-width="1" fill="none" fill-rule="evenodd">
        <g id="meh-regular" fill="#8D8282" fill-rule="nonzero">
            <path d="M18,0 C8.05645161,0 0,8.05645161 0,18 C0,27.9435484 8.05645161,36 18,36 C27.9435484,36 36,27.9435484 36,18 C36,8.05645161 27.9435484,0 18,0 Z M18,32.516129 C9.99435484,32.516129 3.48387097,26.0056452 3.48387097,18 C3.48387097,9.99435484 9.99435484,3.48387097 18,3.48387097 C26.0056452,3.48387097 32.516129,9.99435484 32.516129,18 C32.516129,26.0056452 26.0056452,32.516129 18,32.516129 Z M12.1935484,16.8387097 C13.4782258,16.8387097 14.516129,15.8008065 14.516129,14.516129 C14.516129,13.2314516 13.4782258,12.1935484 12.1935484,12.1935484 C10.908871,12.1935484 9.87096774,13.2314516 9.87096774,14.516129 C9.87096774,15.8008065 10.908871,16.8387097 12.1935484,16.8387097 Z M23.8064516,12.1935484 C22.5217742,12.1935484 21.483871,13.2314516 21.483871,14.516129 C21.483871,15.8008065 22.5217742,16.8387097 23.8064516,16.8387097 C25.091129,16.8387097 26.1290323,15.8008065 26.1290323,14.516129 C26.1290323,13.2314516 25.091129,12.1935484 23.8064516,12.1935484 Z M24.3870968,22.6451613 L11.6129032,22.6451613 C10.6548387,22.6451613 9.87096774,23.4290323 9.87096774,24.3870968 C9.87096774,25.3451613 10.6548387,26.1290323 11.6129032,26.1290323 L24.3870968,26.1290323 C25.3451613,26.1290323 26.1290323,25.3451613 26.1290323,24.3870968 C26.1290323,23.4290323 25.3451613,22.6451613 24.3870968,22.6451613 Z" id="Shape"></path>
        </g>
    </g>
</svg>