<svg id="圖層_1" data-name="圖層 1" xmlns="http://www.w3.org/2000/svg" viewBox="0 0 172 72"><defs><style>.cls-1{fill:#ff561d;}</style></defs><title>WHEE!_Web image_general</title><polygon points="115.37 23.76 115.37 18.68 105.61 18.68 98.09 18.68 98.09 23.76 98.09 30.71 98.09 35.79 98.09 42.74 98.09 47.82 105.61 47.82 115.37 47.82 115.37 42.74 105.61 42.74 105.61 35.79 112.87 35.79 112.87 30.71 105.61 30.71 105.61 23.76 115.37 23.76"/><polygon points="137.72 23.76 137.72 18.68 127.96 18.68 120.44 18.68 120.44 23.76 120.44 30.71 120.44 35.79 120.44 42.74 120.44 47.82 127.96 47.82 137.72 47.82 137.72 42.74 127.96 42.74 127.96 35.79 135.22 35.79 135.22 30.71 127.96 30.71 127.96 23.76 137.72 23.76"/><rect class="cls-1" x="142.79" y="18.68" width="7.52" height="17.11"/><circle class="cls-1" cx="146.56" cy="43.34" r="4.48"/><polygon points="85.49 18.68 85.49 30.46 74.81 30.46 74.81 18.68 67.29 18.68 67.29 30.46 67.29 35.54 67.29 41.4 74.81 41.4 74.81 35.54 85.49 35.54 85.49 47.82 93.01 47.82 93.01 35.54 93.01 30.46 93.01 18.68 85.49 18.68"/><path d="M67.24,46.47v7.31a3.95,3.95,0,0,1-7.9,0V43h0V30.16a11.48,11.48,0,1,0-23,0h0V33h0V53.78a3.95,3.95,0,0,1-7.9,0V43h0V8H21V53.78a11.48,11.48,0,0,0,22.95,0h0V50.94h0V30.16a3.95,3.95,0,0,1,7.9,0V40.92h0V53.78a11.47,11.47,0,0,0,22.94,0h0v-7.3Z"/></svg>