<?xml version="1.0" encoding="UTF-8"?>
<svg width="10px" height="6px" viewBox="0 0 10 6" version="1.1" xmlns="http://www.w3.org/2000/svg" xmlns:xlink="http://www.w3.org/1999/xlink">
    <title>icon / caret_down</title>
    <g id="Guideline" stroke="none" stroke-width="1" fill="none" fill-rule="evenodd">
        <g id="Icons" transform="translate(-788.000000, -159.000000)">
            <g id="icon_caret_down" transform="translate(785.000000, 154.000000)">
                <rect id="Rectangle" x="0" y="0" width="16" height="16"></rect>
                <path d="M8,10.5333333 C8.19227037,10.5255381 8.37329782,10.4406314 8.50222222,10.2977778 L12.0888889,6.17777778 L12.1422222,6.10222222 C12.1969888,6.04507378 12.2259077,5.96795685 12.2222222,5.88888889 C12.2252107,5.77327779 12.1762933,5.66239855 12.0888889,5.58666667 C12.0035814,5.50671902 11.8902077,5.46360506 11.7733333,5.46666667 L4.21777778,5.46666667 C4.10090343,5.46360506 3.98752967,5.50671902 3.90222222,5.58666667 C3.81481777,5.66239855 3.76590046,5.77327779 3.76888889,5.88888889 C3.76108063,5.9751833 3.79014224,6.06075359 3.84888889,6.12444444 L3.90222222,6.17777778 L7.48888889,10.2977778 C7.61993487,10.4428103 7.80460762,10.5279203 8,10.5333333 Z" id="Path" fill="#111112" fill-rule="nonzero"></path>
            </g>
        </g>
    </g>
</svg>