<?xml version="1.0" encoding="UTF-8"?>
<svg width="93px" height="72px" viewBox="0 0 93 72" version="1.1" xmlns="http://www.w3.org/2000/svg" xmlns:xlink="http://www.w3.org/1999/xlink">
    <title>Logo</title>
    <g id="Symbols" stroke="none" stroke-width="1" fill="none" fill-rule="evenodd">
        <g id="desktop/navigation/transprent/english" transform="translate(-92.000000, -24.000000)" fill="#700259" fill-rule="nonzero">
            <g id="Group" transform="translate(92.000000, 24.000000)">
                <g transform="translate(0.000000, 56.237971)" id="Shape">
                    <path d="M3.58991027,15.5212322 L0,15.5212322 L0,0.308627146 L3.73065781,0.308627146 L8.360065,6.89493394 L12.7452837,0.308627146 L16.4352434,0.308627146 L16.4352434,15.5212322 L12.8470289,15.5212322 L12.8470289,6.99667915 L12.8673779,6.2827669 L8.48215926,12.6045361 L8.14300855,12.6045361 L3.56786547,6.21663252 L3.58991027,6.97124285 L3.58991027,15.5212322 Z M30.5523917,13.2574013 L24.468028,13.2574013 L23.6523705,15.5212322 L19.8810146,15.5212322 L25.7737582,0.308627146 L29.3619727,0.308627146 L35.2547163,15.5212322 L31.3544831,15.5212322 L30.5523917,13.2574013 Z M29.5349396,10.4017523 L27.5373419,4.83628913 L25.5176994,10.4017523 L29.5349396,10.4017523 Z M43.6096941,9.44365152 L42.3446619,10.9325231 L42.3446619,15.5212322 L38.7157493,15.5212322 L38.7157493,0.308627146 L42.3446619,0.308627146 L42.3446619,6.09962552 L47.0758143,0.308627146 L51.5000353,0.308627146 L46.0990603,6.67109447 L52.1342472,15.5212322 L47.6930686,15.5212322 L43.6096941,9.44365152 Z M55.7207659,0.308627146 L64.5386844,0.308627146 L64.5386844,3.50342684 L59.3344167,3.50342684 L59.3344167,6.29633293 L63.984173,6.29633293 L63.984173,9.21302904 L59.3344167,9.21302904 L59.3344167,12.3213453 L64.6777362,12.3213453 L64.6777362,15.522928 L55.7055041,15.522928 L55.7207659,0.308627146 Z M72.7461316,10.4424504 L72.5222921,10.4424504 L72.5222921,15.5212322 L68.876422,15.5212322 L68.876422,0.308627146 L73.2395958,0.308627146 C76.2376881,0.308627146 79.2154314,1.4091712 79.2154314,5.46710945 C79.2154314,7.48675193 78.0114463,8.89422737 76.4411785,9.66749099 L80.6805624,15.5212322 L76.3394333,15.5212322 L72.7461316,10.4424504 Z M72.5222921,3.53055889 L72.5222921,7.58849714 L73.3582986,7.58849714 C74.7861231,7.58849714 75.6407829,6.85423585 75.6407829,5.52815657 C75.6407829,4.2020773 74.7030312,3.53055889 73.3582986,3.53055889 L72.5222921,3.53055889 Z M91.3756801,3.75439836 C90.6985579,3.25835004 89.8894208,2.97447336 89.050802,2.9387409 C88.011305,2.9387409 87.5008832,3.34741751 87.5008832,3.95619303 C87.5008832,4.70910761 88.2554935,5.21952943 89.6426199,6.48456158 C92.0895923,8.68904119 92.8849007,9.97103088 92.8849007,11.5616477 C92.8849007,14.1917615 90.5108458,15.7620293 87.5415813,15.7620293 C86.1764997,15.7620293 84.4230905,15.3737017 83.2598036,14.7021833 L84.5248357,11.9075814 C85.4829365,12.4383523 86.4206882,12.8249841 87.5212322,12.8249841 C88.5624249,12.8249841 89.1932452,12.27556 89.1932452,11.6226948 C89.1932452,10.8477355 88.458984,10.1541723 87.0125062,8.84844203 C84.5655338,6.72875009 83.7074825,5.75030029 83.7074825,3.95619303 C83.7074825,1.92128877 85.3404932,0 88.9643185,0 C90.1666078,0 91.5537342,0.406980852 92.655974,0.978449799 L91.3756801,3.75439836 Z"></path>
                </g>
                <path d="M59.2835441,40.8540945 C60.5516547,38.7394229 61.4943092,36.4459541 62.0798417,34.0507313 C62.742308,31.33486 63.0641491,28.5470903 63.0379425,25.7517134 L54.6829647,25.7517134 C54.7321416,27.3898113 54.4981276,28.912598 54.4981276,30.3472055 C54.5491144,34.6869858 52.5349226,38.7927898 49.0717162,41.4086059 C47.7151134,42.4260581 44.4117855,43.8386208 42.605808,43.8386208 C41.4187805,43.8386208 40.1520526,43.6690454 39.1956476,43.3298947 C38.2888618,43.0153821 37.4560952,42.5184922 36.7486752,41.8698509 C36.074022,41.2405855 35.5405503,40.4753454 35.1834947,39.6246732 C34.8074661,38.7160268 34.6199672,37.7404554 34.6323748,36.757154 C34.6323748,35.0003533 35.006571,33.5103512 35.7549636,32.2871476 C36.5461752,31.016826 37.5479976,29.8905642 38.7174451,28.9566876 L47.6405002,39.5619303 C47.8128444,39.766594 48.0716822,39.8778998 48.3387842,39.8622076 C48.6058861,39.8465153 48.8499098,39.7056664 48.9971031,39.4822299 L52.6463647,33.8862432 C52.8378682,33.5935804 52.8137057,33.2097418 52.5870134,32.9434042 L45.6344238,24.6545609 L48.6766057,22.2805059 C49.9767747,21.4912289 51.1755284,20.5458934 52.2461669,19.465555 C53.2957718,18.400649 54.1493701,17.1589992 54.7677524,15.7976401 C55.4053558,14.4093832 55.7241574,12.788808 55.7241574,10.9359146 C55.731847,9.47435011 55.4241336,8.02832844 54.8220165,6.69653077 C54.2147009,5.35712382 53.3154785,4.17052102 52.190207,3.2236275 C50.9367503,2.18159219 49.498679,1.38432545 47.9508231,0.873313078 C46.2844627,0.291104359 44.3829577,0 42.2463082,0 C39.990956,0 37.9910973,0.356108246 36.2467321,1.06832474 C34.6111638,1.71432113 33.1187835,2.67601334 31.8547304,3.89853741 C30.6792255,5.05013699 29.7553641,6.43304212 29.1415248,7.95986717 C28.5306996,9.48296053 28.2186606,11.1093631 28.2224263,12.7503709 C28.2447489,14.4897743 28.6269676,16.2057168 29.3450152,17.7901505 C30.1595787,19.6147632 31.2333289,21.3122024 32.5330319,22.8299301 L33.2689889,23.7931181 L31.0560305,26.1960008 C30.0265521,27.0628952 29.1109193,28.0565875 28.3309546,29.153395 C26.6035973,31.5915618 25.6994206,34.5173635 25.7500177,37.5049813 C25.7250661,39.393618 26.0887033,41.2672154 26.8183424,43.0093973 C27.5170419,44.6410314 28.5879238,46.0864897 29.9453119,47.2301279 C31.3211333,48.3934148 33.0021903,49.2899032 34.988483,49.919593 C36.9747757,50.5492828 39.2442592,50.8635625 41.7969335,50.8629375 C44.0063408,50.8776878 46.2045593,50.5475545 48.3120187,49.8839822 C50.3189975,49.2465969 52.1994819,48.2641772 53.869003,46.9808521 L56.4821593,50.043383 L67.1264043,50.043383 L59.2835441,40.8540945 Z M37.0776514,10.0795591 C37.2997173,9.43401159 37.6498176,8.83993697 38.1069738,8.33293295 C38.5771283,7.82540655 39.1476703,7.42117642 39.7823783,7.14590546 C40.4907782,6.83760803 41.2567514,6.68383529 42.0292517,6.69483502 C42.7860251,6.67983263 43.5373775,6.82547941 44.2337314,7.12216491 C44.8421966,7.38607973 45.392543,7.76757645 45.853176,8.24475376 C46.2963652,8.70527519 46.6423802,9.25024882 46.8706281,9.84724087 C47.100067,10.4318236 47.2185319,11.0540516 47.2199534,11.6820462 C47.2308399,12.5368476 47.0488374,13.3831015 46.6874868,14.1578464 C46.3147158,14.9286284 45.8167644,15.6322928 45.2138769,16.2402318 C44.5493947,16.9152325 43.8155998,17.5182971 43.0246591,18.0394263 C42.1903483,18.5967639 41.3068607,19.1490143 40.3741963,19.6961775 L40.3012789,19.5537342 C39.3172392,18.3962988 38.4424551,17.1502565 37.6881227,15.8315551 C37.0597625,14.7173498 36.7297436,13.4597733 36.7299787,12.1805978 C36.727377,11.4654408 36.8460677,10.7550168 37.0810429,10.0795591" id="Shape"></path>
            </g>
        </g>
    </g>
</svg>