<?xml version="1.0" encoding="UTF-8"?>
<svg width="36px" height="36px" viewBox="0 0 36 36" version="1.1" xmlns="http://www.w3.org/2000/svg" xmlns:xlink="http://www.w3.org/1999/xlink">
    <title>icon-curiosity</title>
    <g id="icon-curiosity" stroke="none" stroke-width="1" fill="none" fill-rule="evenodd">
        <path d="M18,34 C20.2083333,34 22.2864583,33.5833333 24.234375,32.75 C26.1822917,31.9166667 27.8802083,30.7760417 29.328125,29.328125 C30.7760417,27.8802083 31.9166667,26.1822917 32.75,24.234375 C33.5833333,22.2864583 34,20.2083333 34,18 C34,15.7916667 33.5833333,13.7135417 32.75,11.765625 C31.9166667,9.81770833 30.7760417,8.11979167 29.328125,6.671875 C27.8802083,5.22395833 26.1822917,4.08333333 24.234375,3.25 C22.2864583,2.41666667 20.2083333,2 18,2 C15.7916667,2 13.7135417,2.41666667 11.765625,3.25 C9.81770833,4.08333333 8.11979167,5.22395833 6.671875,6.671875 C5.22395833,8.11979167 4.08333333,9.81770833 3.25,11.765625 C2.41666667,13.7135417 2,15.7916667 2,18 C2,20.2083333 2.41666667,22.2864583 3.25,24.234375 C4.08333333,26.1822917 5.22395833,27.8802083 6.671875,29.328125 C8.11979167,30.7760417 9.81770833,31.9166667 11.765625,32.75 C13.7135417,33.5833333 15.7916667,34 18,34 Z M18,32 C16.0625,32 14.2447917,31.6302083 12.546875,30.890625 C10.8489583,30.1510417 9.36979167,29.1510417 8.109375,27.890625 C6.84895833,26.6302083 5.84895833,25.1510417 5.109375,23.453125 C4.36979167,21.7552083 4,19.9375 4,18 C4,16.0625 4.36979167,14.2447917 5.109375,12.546875 C5.84895833,10.8489583 6.84895833,9.36979167 8.109375,8.109375 C9.36979167,6.84895833 10.8489583,5.84895833 12.546875,5.109375 C14.2447917,4.36979167 16.0625,4 18,4 C19.9375,4 21.7552083,4.36979167 23.453125,5.109375 C25.1510417,5.84895833 26.6302083,6.84895833 27.890625,8.109375 C29.1510417,9.36979167 30.1510417,10.8489583 30.890625,12.546875 C31.6302083,14.2447917 32,16.0625 32,18 C32,19.9375 31.6302083,21.7552083 30.890625,23.453125 C30.1510417,25.1510417 29.1510417,26.6302083 27.890625,27.890625 C26.6302083,29.1510417 25.1510417,30.1510417 23.453125,30.890625 C21.7552083,31.6302083 19.9375,32 18,32 Z M13,17 C13.5416667,17 14.0052083,16.8020833 14.390625,16.40625 C14.7760417,16.0104167 14.96875,15.5416667 14.96875,15 C14.96875,14.4583333 14.7760417,13.9895833 14.390625,13.59375 C14.0052083,13.1979167 13.5416667,13 13,13 C12.4375,13 11.9635417,13.1979167 11.578125,13.59375 C11.1927083,13.9895833 11,14.4583333 11,15 C11,15.5416667 11.1927083,16.0104167 11.578125,16.40625 C11.9635417,16.8020833 12.4375,17 13,17 Z M23,17 C23.5416667,17 24.0052083,16.8020833 24.390625,16.40625 C24.7760417,16.0104167 24.96875,15.5416667 24.96875,15 C24.96875,14.4583333 24.7760417,13.9895833 24.390625,13.59375 C24.0052083,13.1979167 23.5416667,13 23,13 C22.4375,13 21.9635417,13.1979167 21.578125,13.59375 C21.1927083,13.9895833 21,14.4583333 21,15 C21,15.5416667 21.1927083,16.0104167 21.578125,16.40625 C21.9635417,16.8020833 22.4375,17 23,17 Z M17.8125,28.0625 C17.8333333,28.0625 17.8541667,28.0572917 17.875,28.046875 C17.8958333,28.0364583 17.9166667,28.03125 17.9375,28.03125 C19.5416667,28.03125 20.90625,27.7395833 22.03125,27.15625 C23.15625,26.5729167 24.078125,25.9322917 24.796875,25.234375 C25.515625,24.5364583 26.0416667,23.8854167 26.375,23.28125 C26.7083333,22.6770833 26.8854167,22.34375 26.90625,22.28125 C27.03125,22.03125 27.0416667,21.78125 26.9375,21.53125 C26.8333333,21.28125 26.65625,21.09375 26.40625,20.96875 C26.15625,20.8645833 25.9010417,20.859375 25.640625,20.953125 C25.3802083,21.046875 25.1979167,21.21875 25.09375,21.46875 C25.09375,21.4895833 24.9583333,21.734375 24.6875,22.203125 C24.4166667,22.671875 23.9947917,23.1875 23.421875,23.75 C22.8489583,24.3125 22.109375,24.8333333 21.203125,25.3125 C20.296875,25.7916667 19.2083333,26.03125 17.9375,26.03125 C17.9166667,26.03125 17.8958333,26.0364583 17.875,26.046875 C17.8541667,26.0572917 17.84375,26.0625 17.84375,26.0625 C16.6354167,26.0625 15.5989583,25.828125 14.734375,25.359375 C13.8697917,24.890625 13.15625,24.3802083 12.59375,23.828125 C12.03125,23.2760417 11.609375,22.7552083 11.328125,22.265625 C11.046875,21.7760417 10.8958333,21.5104167 10.875,21.46875 C10.75,21.21875 10.5625,21.046875 10.3125,20.953125 C10.0625,20.859375 9.8125,20.8645833 9.5625,20.96875 C9.29166667,21.09375 9.109375,21.28125 9.015625,21.53125 C8.921875,21.78125 8.9375,22.0416667 9.0625,22.3125 C9.08333333,22.3541667 9.265625,22.6822917 9.609375,23.296875 C9.953125,23.9114583 10.4791667,24.5677083 11.1875,25.265625 C11.8958333,25.9635417 12.796875,26.6041667 13.890625,27.1875 C14.984375,27.7708333 16.2916667,28.0625 17.8125,28.0625 Z" id="" fill="#6F1C5A" fill-rule="nonzero"></path>
    </g>
</svg>