<?xml version="1.0" encoding="UTF-8"?>
<svg width="36px" height="36px" viewBox="0 0 36 36" version="1.1" xmlns="http://www.w3.org/2000/svg" xmlns:xlink="http://www.w3.org/1999/xlink">
    <title>icon-partnership</title>
    <g id="icon-partnership" stroke="none" stroke-width="1" fill="none" fill-rule="evenodd">
        <g id="cenports_illustration_Invoice-複本-5" transform="translate(3.000000, 4.000000)" fill="#6F1C5A" fill-rule="nonzero">
            <path d="M5.76875907,16.9182677 L5.67520284,17.0229694 L6.94457738,18.2991701 C7.41282353,17.8334285 8.17398965,17.8334285 8.64223581,18.2991701 C9.10780903,18.7622531 9.10780903,19.5110493 8.64223581,19.9741322 L9.91161033,21.2503329 C10.3798565,20.7845914 11.1410226,20.7845914 11.6092688,21.2503329 L11.6961758,21.3465897 C12.045873,21.778743 12.045873,22.396885 11.6961758,22.8290382 L11.608871,22.9256909 L12.8790411,24.2010998 C13.2215267,23.860021 13.7383641,23.7576334 14.187149,23.9425993 C14.6342702,24.1268795 14.9246003,24.5595381 14.9241762,25.0381792 C14.9271957,25.327395 14.8285851,25.5981047 14.6462377,25.8109181 L14.1025942,26.4453917 L15.5653127,27.9002864 C16.7357136,29.064427 18.6313193,29.064427 19.8017202,27.9002864 L19.9368583,27.7568741 C20.4117186,27.2189168 20.6594718,26.5514782 20.6801179,25.8784099 L20.68,25.82 L20.7424724,25.8200155 C21.4776708,25.7977003 22.2062056,25.5076034 22.7681483,24.9497247 L22.9032065,24.8061459 C23.3777866,24.2676344 23.6254034,23.6002485 23.6461598,22.9273707 L23.646,22.869 L23.709551,22.8696693 C24.4451141,22.8473178 25.1739937,22.5567483 25.7357861,21.9979608 L25.8709243,21.8545485 C26.3457845,21.3165912 26.5935377,20.6491526 26.6141838,19.9760844 L26.614,19.918 L26.676584,19.9185065 C27.4121471,19.896155 28.1410267,19.6055855 28.7028191,19.046798 C29.875893,17.8799988 29.875893,15.9862338 28.7028191,14.8194345 L21.6453712,7.7997357 L20.3849232,7.76491053 L20.2078065,7.83813169 C19.4989323,8.13118471 18.7386627,8.28184586 17.9708576,8.2813955 L16.4418076,8.28139535 L14.7839941,9.9303415 C14.5795311,10.1349191 14.3033302,10.2490647 14.014995,10.2488375 L10.2956044,10.2488372 C10.0947996,10.2485424 9.91362482,10.1280215 9.83721214,9.94485196 C9.76149461,9.76334876 9.80288177,9.55458085 9.94300595,9.41444943 L16.1113839,3.27906977 L14.9654565,2.13927173 C14.1952596,1.37545455 13.30014,0.750860485 12.3155815,0.289825586 L11.9422489,0.124651866 C7.84694889,-1.55288243 3.13046228,-0.122753586 0.671275878,3.54364812 C-1.78954355,7.2124845 -1.30535304,12.0997569 1.82755905,15.2197344 L2.96703297,16.3531137 L3.97754441,15.3480073 C4.28033657,15.0468348 4.72282327,14.928905 5.13760431,15.0394508 C5.55136206,15.1497238 5.87363568,15.4702736 5.98387542,15.8794933 C6.08161942,16.2423277 5.99975868,16.626832 5.76875907,16.9182677 Z M19.8011153,23.6723218 L18.5323457,24.9491236 C18.9979189,25.4122066 18.9979189,26.1610027 18.5323457,26.6240857 L18.4349644,26.7110241 C17.9639126,27.0877573 17.271717,27.0587778 16.8346873,26.6240857 L16.468,26.26 L16.5462077,26.0700369 C16.6666691,25.7392434 16.7279326,25.3870209 16.7241248,25.0293946 C16.7252473,23.8302709 15.9938694,22.7403496 14.8730444,22.2784035 L14.685056,22.2081403 C14.4325931,22.1232468 14.1734329,22.0734089 13.914162,22.0573286 L13.757,22.052 L13.757041,21.9960087 C13.734518,21.2617524 13.4417187,20.5341959 12.8786433,19.9741322 L12.734807,19.8400232 C12.1953245,19.3687791 11.5266743,19.1229126 10.8524082,19.1024237 L10.79,19.102 L10.790008,19.0448459 C10.767485,18.3105896 10.4746858,17.583033 9.91161034,17.0229694 L9.76777408,16.8888604 C9.22829156,16.4176163 8.55964137,16.1717498 7.88537519,16.1512609 L7.823,16.151 L7.81843983,15.9963712 C7.80597306,15.80074 7.7740452,15.6047976 7.72191424,15.4112829 C7.44416018,14.3802351 6.63540722,13.5758081 5.60115238,13.3001626 L5.40671066,13.2551739 C4.56148832,13.0888955 3.68762782,13.2938532 3.00750594,13.8111115 L2.986,13.828 L3.09732463,13.9439229 C0.574888047,11.4319002 0.185304626,7.49956315 2.16615311,4.5463156 C4.09907257,1.66452542 7.76573237,0.495331818 11.0111672,1.69347934 L11.2546184,1.78812144 L11.5556421,1.92133818 C12.2505609,2.24687743 12.892162,2.67462999 13.4588225,3.19014418 L13.555,3.282 L8.67190614,8.13996941 C8.01443456,8.79747028 7.81915054,9.78253515 8.17597018,10.6378708 C8.53209468,11.4915402 9.36781991,12.0474803 10.2942872,12.0488362 L14.0142857,12.0488372 L14.2221341,12.0415072 C14.9116259,11.9922597 15.5636586,11.6965457 16.0552644,11.2046509 L17.184,10.081 L17.9703297,10.0813953 L18.3044237,10.0742876 C19.082808,10.0406962 19.8517197,9.88831224 20.5839851,9.62245828 L20.707,9.574 L20.882,9.579 L27.4334446,16.0956352 C27.8990178,16.5587182 27.8990178,17.3075144 27.4334446,17.7705973 C26.9651984,18.2363389 26.2040323,18.2363389 25.7357862,17.7705973 L24.4664116,19.046798 C24.9319848,19.509881 24.9319848,20.2586771 24.4664116,20.7217601 C23.9981655,21.1875017 23.2369994,21.1875017 22.7687532,20.7217601 L21.4987743,21.9973591 C21.9640556,22.4610296 21.9640556,23.2098541 21.4987743,23.6735246 C21.0311417,24.137773 20.2699572,24.137773 19.8011153,23.6723218 Z" id="Path"></path>
            <path d="M17.7264463,0.125323223 C16.5959215,0.596887331 15.5713447,1.2799774 14.705817,2.13833433 L8.67190614,8.13996941 C8.01443456,8.79747028 7.81915054,9.78253515 8.17597018,10.6378708 C8.53209468,11.4915402 9.36781991,12.0474803 10.2942872,12.0488362 L14.0142857,12.0488372 L14.2221341,12.0415072 C14.9116259,11.9922597 15.5636586,11.6965457 16.0552644,11.2046509 L17.184,10.081 L17.9703297,10.0813953 L18.3044237,10.0742876 C19.082808,10.0406962 19.8517197,9.88831224 20.5839851,9.62245828 L20.713,9.571 L20.896,9.574 L27.2173195,15.8609917 L28.0459362,15.0116126 C31.0116684,11.8700294 31.4119347,7.1166873 29.0103445,3.53615584 C26.5482088,-0.134643038 21.8233257,-1.56225822 17.7264463,0.125323223 Z M27.6672551,4.77450645 C29.2826507,7.38876467 29.1085248,10.7044675 27.2852793,13.1277652 L27.17,13.274 L21.6500785,7.78474343 L20.378847,7.76742245 L20.2078065,7.83813169 C19.4989323,8.13118471 18.7386627,8.28184586 17.9708576,8.2813955 L16.4418076,8.28139535 L14.7839941,9.9303415 C14.5795311,10.1349191 14.3033302,10.2490647 14.014995,10.2488375 L10.2956044,10.2488372 C10.0947996,10.2485424 9.91362482,10.1280215 9.83721214,9.94485196 C9.76149461,9.76334876 9.80288177,9.55458085 9.94300595,9.41444943 L15.9742477,3.41547246 C16.6737709,2.72174613 17.5032254,2.16874497 18.4157112,1.78812144 C21.7180469,0.427837082 25.530776,1.57984655 27.5154673,4.53882332 L27.6672551,4.77450645 Z" id="Path"></path>
            <path d="M11.6098737,22.9246939 L10.8576204,23.6729229 C9.68454658,24.8397222 9.68454658,26.7334871 10.8576204,27.9002864 C12.0280213,29.064427 13.923627,29.064427 15.0940279,27.9002864 L15.9194963,27.0783705 L15.9970726,26.985664 L16.039,26.926 L15.9989474,26.9772097 C16.4668213,26.4391138 16.7244005,25.7508867 16.7241762,25.038693 C16.7229397,24.318291 16.462375,23.626044 15.9923221,23.0830075 L15.8450714,22.9246939 C14.6743574,21.7624466 12.7805877,21.7624466 11.6098737,22.9246939 Z M14.4794138,24.1152124 L14.5742562,24.1994545 C14.7980584,24.4234938 14.9236366,24.725687 14.9241773,25.0405221 L14.9159187,25.1778397 C14.8939497,25.3594458 14.8285962,25.5338754 14.7252049,25.6862377 L14.5838239,25.8708451 L13.8246534,26.6240857 C13.3564072,27.0898273 12.5952411,27.0898273 12.126995,26.6240857 C11.6614217,26.1610027 11.6614217,25.4122066 12.126995,24.9491236 L12.8786433,24.2014957 C13.3156645,23.7676356 14.0078755,23.7387116 14.4794138,24.1152124 Z" id="Path"></path>
            <path d="M5.67580777,17.0223683 L4.92355449,17.7705973 C3.7504807,18.9373966 3.75048074,20.8311615 4.92355455,21.9979608 C6.09395542,23.1621014 7.98956105,23.1621014 9.15996197,21.9979609 L9.91161034,21.2503329 C11.036514,20.1293243 11.0815101,18.3408823 10.0460636,17.1659472 L9.91100542,17.0223683 C8.74029147,15.860121 6.84652172,15.860121 5.67580777,17.0223683 Z M8.54534787,18.2128868 L8.64163145,18.2985684 C9.10691273,18.7622389 9.10691273,19.5110634 8.64163145,19.9747339 L7.89058746,20.7217601 C7.42234132,21.1875016 6.66117523,21.1875016 6.19292908,20.72176 C5.72735588,20.2586771 5.72735586,19.509881 6.19292905,19.046798 L6.94457738,18.2991701 C7.38159856,17.8653101 8.07380956,17.836386 8.54534787,18.2128868 Z" id="Path"></path>
            <path d="M8.64284074,19.9735311 L7.89058746,20.7217601 C6.71751362,21.8885594 6.71751362,23.7823244 7.89058746,24.9491236 C9.06098836,26.1132642 10.9565941,26.1132642 12.126995,24.9491236 L12.8786433,24.2014957 C14.003547,23.080487 14.0485431,21.2920451 13.0130965,20.11711 L12.8780384,19.9735311 C11.7073244,18.8112838 9.81355468,18.8112838 8.64284074,19.9735311 Z M11.5123808,21.1640496 L11.6086644,21.2497312 C12.0739457,21.7134017 12.0739457,22.4622262 11.6086644,22.9258967 L10.8576204,23.6729229 C10.3893743,24.1386645 9.62820815,24.1386645 9.15996199,23.6729229 C8.69438877,23.2098399 8.69438877,22.4610438 9.15996199,21.9979608 L9.91161034,21.2503329 C10.3486315,20.8164728 11.0408425,20.7875488 11.5123808,21.1640496 Z" id="Path"></path>
            <path d="M2.7087748,14.0712055 L1.95652152,14.8194345 C1.19778706,15.5741106 0.90115286,16.6752431 1.17918466,17.7073218 C1.45693872,18.7383695 2.26569168,19.5427966 3.29994652,19.818442 C4.33317807,20.0938147 5.4357024,19.7999744 6.19292903,19.046798 L6.94457738,18.2991701 C8.06948103,17.1781615 8.11447717,15.3897195 7.07903061,14.2147844 L6.94397245,14.0712055 C5.7732585,12.9089582 3.87948875,12.9089582 2.7087748,14.0712055 Z M5.57831491,15.2617241 L5.67459848,15.3474056 C6.13987977,15.8110761 6.13987977,16.5599006 5.67459848,17.0235711 L4.92355449,17.7705973 C4.62076233,18.0717699 4.17827563,18.1896997 3.76349459,18.0791539 C3.34973684,17.9688808 3.02746322,17.648331 2.91722348,17.2391113 C2.80726148,16.8309226 2.92461174,16.395308 3.22589606,16.0956352 L3.97754441,15.3480073 C4.41456559,14.9141473 5.10677659,14.8852233 5.57831491,15.2617241 Z" id="Path"></path>
        </g>
    </g>
</svg>