<?xml version="1.0" encoding="UTF-8"?>
<svg width="36px" height="36px" viewBox="0 0 36 36" version="1.1" xmlns="http://www.w3.org/2000/svg" xmlns:xlink="http://www.w3.org/1999/xlink">
    <title>icon-frown</title>
    <g id="icon-frown" stroke="none" stroke-width="1" fill="none" fill-rule="evenodd" opacity="0.5">
        <g id="frown-regular" fill="#8D8282" fill-rule="nonzero">
            <path d="M18,0 C8.05645161,0 0,8.05645161 0,18 C0,27.9435484 8.05645161,36 18,36 C27.9435484,36 36,27.9435484 36,18 C36,8.05645161 27.9435484,0 18,0 Z M18,32.516129 C9.99435484,32.516129 3.48387097,26.0056452 3.48387097,18 C3.48387097,9.99435484 9.99435484,3.48387097 18,3.48387097 C26.0056452,3.48387097 32.516129,9.99435484 32.516129,18 C32.516129,26.0056452 26.0056452,32.516129 18,32.516129 Z M12.1935484,16.8387097 C13.4782258,16.8387097 14.516129,15.8008065 14.516129,14.516129 C14.516129,13.2314516 13.4782258,12.1935484 12.1935484,12.1935484 C10.908871,12.1935484 9.87096774,13.2314516 9.87096774,14.516129 C9.87096774,15.8008065 10.908871,16.8387097 12.1935484,16.8387097 Z M23.8064516,12.1935484 C22.5217742,12.1935484 21.483871,13.2314516 21.483871,14.516129 C21.483871,15.8008065 22.5217742,16.8387097 23.8064516,16.8387097 C25.091129,16.8387097 26.1290323,15.8008065 26.1290323,14.516129 C26.1290323,13.2314516 25.091129,12.1935484 23.8064516,12.1935484 Z M18,21.483871 C15.0822581,21.483871 12.3387097,22.7685484 10.466129,25.0112903 C9.84919355,25.7516129 9.95080645,26.8475806 10.691129,27.4645161 C11.4314516,28.0741935 12.5274194,27.9798387 13.1443548,27.2395161 C14.3491935,25.7951613 16.1201613,24.9604839 18,24.9604839 C19.8798387,24.9604839 21.6508065,25.7879032 22.8556452,27.2395161 C23.4435484,27.9435484 24.5322581,28.1032258 25.308871,27.4645161 C26.0491935,26.8475806 26.1435484,25.7516129 25.533871,25.0112903 C23.6612903,22.7685484 20.9177419,21.483871 18,21.483871 Z" id="Shape"></path>
        </g>
    </g>
</svg>