<?xml version="1.0" encoding="UTF-8"?>
<svg width="36px" height="36px" viewBox="0 0 36 36" version="1.1" xmlns="http://www.w3.org/2000/svg" xmlns:xlink="http://www.w3.org/1999/xlink">
    <title>icon-angle-right</title>
    <g id="icon-angle-right" stroke="none" stroke-width="1" fill="none" fill-rule="evenodd">
        <path d="M18,27.8276553 C18.2725451,27.8276553 18.5791583,27.6913828 18.7835671,27.4869739 L34.6593186,11.6112224 C34.8637275,11.4068136 35,11.1002004 35,10.8276553 C35,10.5551102 34.8637275,10.248497 34.6593186,10.0440882 L32.9559118,8.34068136 C32.751503,8.13627255 32.4448898,8 32.1723447,8 C31.8997996,8 31.5931864,8.13627255 31.3887776,8.34068136 L18,21.7294589 L4.61122244,8.34068136 C4.40681363,8.13627255 4.1002004,8 3.82765531,8 C3.52104208,8 3.24849699,8.13627255 3.04408818,8.34068136 L1.34068136,10.0440882 C1.13627255,10.248497 1,10.5551102 1,10.8276553 C1,11.1002004 1.13627255,11.4068136 1.34068136,11.6112224 L17.2164329,27.4869739 C17.4208417,27.6913828 17.7274549,27.8276553 18,27.8276553 Z" id="" fill="#B6258F" fill-rule="nonzero" transform="translate(18.000000, 17.913828) rotate(-90.000000) translate(-18.000000, -17.913828) "></path>
    </g>
</svg>