<?xml version="1.0" encoding="UTF-8"?>
<svg width="36px" height="36px" viewBox="0 0 36 36" version="1.1" xmlns="http://www.w3.org/2000/svg" xmlns:xlink="http://www.w3.org/1999/xlink">
    <title>icon-integrity</title>
    <g id="icon-integrity" stroke="none" stroke-width="1" fill="none" fill-rule="evenodd">
        <path d="M21.03125,34 C22.46875,34 23.7708333,33.9322917 24.9375,33.796875 C26.1041667,33.6614583 27.109375,33.4583333 27.953125,33.1875 C28.796875,32.9166667 29.4739583,32.5625 29.984375,32.125 C30.4947917,31.6875 30.8125,31.1666667 30.9375,30.5625 C31.0208333,30.25 31.0572917,29.9166667 31.046875,29.5625 C31.0364583,29.2083333 31.0104167,28.9270833 30.96875,28.71875 C31.34375,28.4479167 31.7604167,28.0625 32.21875,27.5625 C32.6770833,27.0625 32.9270833,26.4270833 32.96875,25.65625 C32.9895833,25.34375 32.9479167,25.0572917 32.84375,24.796875 C32.7395833,24.5364583 32.65625,24.3125 32.59375,24.125 C32.8854167,23.8125 33.203125,23.40625 33.546875,22.90625 C33.890625,22.40625 34.0520833,21.8125 34.03125,21.125 C34.0104167,20.6041667 33.859375,20.140625 33.578125,19.734375 C33.296875,19.328125 33.0208333,18.9895833 32.75,18.71875 C32.8541667,18.46875 32.9270833,18.1458333 32.96875,17.75 C33.0104167,17.3541667 33.03125,16.9791667 33.03125,16.625 C33.0104167,15.5416667 32.6197917,14.6666667 31.859375,14 C31.0989583,13.3333333 30.1041667,13 28.875,13 C28.8003472,13 28.7233796,13.0000362 28.6440972,13.0001085 L28.140625,13.0009766 C27.34375,13.0029297 26.359375,13.0078125 25.1875,13.015625 C23.625,13.0260417 22.3333333,13.03125 21.3125,13.03125 C21.4583333,12.4270833 21.5989583,11.7083333 21.734375,10.875 C21.8697917,10.0416667 21.9583333,9.19270833 22,8.328125 C22.0416667,7.46354167 22.0104167,6.63541667 21.90625,5.84375 C21.8020833,5.05208333 21.59375,4.39583333 21.28125,3.875 C20.96875,3.35416667 20.5260417,2.91145833 19.953125,2.546875 C19.3802083,2.18229167 18.8020833,2 18.21875,2 C17.21875,2 16.59375,2.19791667 16.34375,2.59375 C16.09375,2.98958333 15.8333333,3.51041667 15.5625,4.15625 C14.7708333,6.05208333 13.9010417,7.734375 12.953125,9.203125 C12.0052083,10.671875 11.0364583,11.9114583 10.046875,12.921875 C9.05729167,13.9322917 8.07291667,14.6979167 7.09375,15.21875 C6.11458333,15.7395833 5.20833333,16 4.375,16 C4.1875,16 4.02083333,16.0416667 3.875,16.125 C3.72916667,16.2083333 3.60416667,16.3229167 3.5,16.46875 C3.47916667,16.53125 3.21875,17.1197917 2.71875,18.234375 C2.21875,19.3489583 1.96875,21.09375 1.96875,23.46875 C1.96875,25.8645833 2.31770833,27.765625 3.015625,29.171875 C3.71354167,30.578125 4.08333333,31.3125 4.125,31.375 C4.20833333,31.5 4.31770833,31.5885417 4.453125,31.640625 C4.58854167,31.6927083 4.73958333,31.7291667 4.90625,31.75 C6.94791667,31.875 8.35416667,32.0208333 9.125,32.1875 C9.89583333,32.3541667 10.4270833,32.5520833 10.71875,32.78125 C11.28125,33.1979167 12,33.5052083 12.875,33.703125 C13.75,33.9010417 16.46875,34 21.03125,34 Z M21.3067602,31.9990434 L20.2346189,31.9992196 C16.4901687,31.9916753 14.281754,31.9294355 13.609375,31.8125 C12.890625,31.6875 12.3333333,31.46875 11.9375,31.15625 C11.4375,30.78125 10.6770833,30.484375 9.65625,30.265625 C8.63541667,30.046875 7.22916667,29.8645833 5.4375,29.71875 C5.1875,29.3229167 4.88020833,28.5677083 4.515625,27.453125 C4.15104167,26.3385417 3.96875,25.0104167 3.96875,23.46875 C3.96875,21.9479167 4.09375,20.75 4.34375,19.875 C4.59375,19 4.8125,18.3645833 5,17.96875 C6.02083333,17.8645833 7.08333333,17.5 8.1875,16.875 C9.29166667,16.25 10.390625,15.390625 11.484375,14.296875 C12.578125,13.203125 13.6302083,11.8697917 14.640625,10.296875 C15.6510417,8.72395833 16.5729167,6.9375 17.40625,4.9375 C17.59375,4.52083333 17.7604167,4.26041667 17.90625,4.15625 C18.0520833,4.05208333 18.15625,4 18.21875,4 C18.71875,4 19.03125,4.09375 19.15625,4.28125 C19.28125,4.46875 19.4166667,4.67708333 19.5625,4.90625 C19.7916667,5.28125 19.9322917,5.8125 19.984375,6.5 C20.0364583,7.1875 20.0260417,7.94270833 19.953125,8.765625 C19.8802083,9.58854167 19.7552083,10.4270833 19.578125,11.28125 C19.4010417,12.1354167 19.1875,12.9166667 18.9375,13.625 C18.875,13.7916667 18.8489583,13.9583333 18.859375,14.125 C18.8697917,14.2916667 18.9270833,14.4375 19.03125,14.5625 C19.1145833,14.7083333 19.2291667,14.8229167 19.375,14.90625 C19.5208333,14.9895833 19.6875,15.03125 19.875,15.03125 C19.875,15.03125 20.2239583,15.0260417 20.921875,15.015625 C21.6197917,15.0052083 22.453125,15 23.421875,15 L23.421875,15 L28.875,15 C29.0625,15 29.4635417,15.0729167 30.078125,15.21875 C30.6927083,15.3645833 31.0104167,15.84375 31.03125,16.65625 C31.03125,17.0520833 30.9479167,17.4114583 30.78125,17.734375 C30.6145833,18.0572917 30.53125,18.21875 30.53125,18.21875 C30.4479167,18.34375 30.390625,18.4791667 30.359375,18.625 C30.328125,18.7708333 30.3229167,18.90625 30.34375,19.03125 C30.3854167,19.1770833 30.4479167,19.3072917 30.53125,19.421875 C30.6145833,19.5364583 30.71875,19.6354167 30.84375,19.71875 C30.8645833,19.71875 31.0625,19.8541667 31.4375,20.125 C31.8125,20.3958333 32.0104167,20.75 32.03125,21.1875 C32.03125,21.7083333 31.8177083,22.1458333 31.390625,22.5 C30.9635417,22.8541667 30.75,23.03125 30.75,23.03125 C30.5416667,23.1979167 30.4114583,23.4166667 30.359375,23.6875 C30.3072917,23.9583333 30.3541667,24.1979167 30.5,24.40625 C30.5,24.4270833 30.5833333,24.5364583 30.75,24.734375 C30.9166667,24.9322917 30.9895833,25.21875 30.96875,25.59375 C30.9479167,26.1354167 30.6041667,26.5729167 29.9375,26.90625 L29.9375,26.90625 L29.6310764,27.0590278 C29.3515625,27.1979167 29.1527778,27.2951389 29.0347222,27.3506944 L28.9435764,27.3923611 C28.9221644,27.4016204 28.9097222,27.40625 28.90625,27.40625 C28.65625,27.5104167 28.484375,27.6927083 28.390625,27.953125 C28.296875,28.2135417 28.3020833,28.46875 28.40625,28.71875 C28.40625,28.71875 28.5208333,28.8645833 28.75,29.15625 C28.9791667,29.4479167 29.0625,29.7708333 29,30.125 C28.8958333,30.5625 28.5416667,30.90625 27.9375,31.15625 C27.3333333,31.40625 26.625,31.59375 25.8125,31.71875 C25,31.84375 24.15625,31.921875 23.28125,31.953125 C22.40625,31.984375 21.65625,32 21.03125,32 L21.3067602,31.9990434 Z" id="î¨" fill="#6F1C5A" fill-rule="nonzero"></path>
    </g>
</svg>