<?xml version="1.0" encoding="UTF-8"?>
<svg width="36px" height="36px" viewBox="0 0 36 36" version="1.1" xmlns="http://www.w3.org/2000/svg" xmlns:xlink="http://www.w3.org/1999/xlink">
    <title>icon-selflessness</title>
    <g id="icon-selflessness" stroke="none" stroke-width="1" fill="none" fill-rule="evenodd">
        <path d="M18,32.8187135 C18.374269,32.8187135 18.7433398,32.7459389 19.1072125,32.6003899 C19.4710851,32.4548408 19.7985705,32.2365172 20.0896686,31.9454191 C20.0896686,31.9454191 20.6666667,31.3268356 21.8206628,30.0896686 C22.9746589,28.8525016 24.2430149,27.4801819 25.625731,25.9727096 C27.008447,24.4652372 28.2871995,23.0825211 29.4619883,21.8245614 C30.6367771,20.5666017 31.2345679,19.9272255 31.2553606,19.9064327 C32.1702404,18.991553 32.8564003,17.957115 33.3138402,16.8031189 C33.7712801,15.6491228 34,14.4795322 34,13.294347 C34,12.1091618 33.7712801,10.9395712 33.3138402,9.78557505 C32.8564003,8.63157895 32.1702404,7.60753736 31.2553606,6.71345029 C30.3612736,5.7985705 29.394412,5.11760884 28.3547758,4.6705653 C27.3151397,4.22352177 26.1819363,4 24.9551657,4 C23.7699805,4 22.5588044,4.39506173 21.3216374,5.18518519 C20.0844704,5.97530864 18.977258,6.86939571 18,7.86744639 C16.9811566,6.86939571 15.8635478,5.97530864 14.6471735,5.18518519 C13.4307992,4.39506173 12.2092268,4 10.9824561,4 C9.79727096,4 8.67966212,4.19233268 7.62962963,4.57699805 C6.57959714,4.96166342 5.61793372,5.59064327 4.74463938,6.46393762 C3.82975958,7.37881741 3.14359974,8.40805718 2.68615984,9.55165692 C2.22871995,10.6952567 2,11.8648473 2,13.0604288 C2,14.2560104 2.22871995,15.425601 2.68615984,16.5692008 C3.14359974,17.7128005 3.82975958,18.7420403 4.74463938,19.6569201 C4.99415205,19.9272255 5.71669916,20.7173489 6.9122807,22.0272904 C8.10786225,23.337232 9.37102014,24.7303444 10.7017544,26.2066277 C12.0324886,27.682911 13.2332684,29.008447 14.3040936,30.1832359 C15.3749188,31.3580247 15.9103314,31.9454191 15.9103314,31.9454191 C16.2014295,32.2365172 16.5237167,32.4548408 16.877193,32.6003899 C17.2306693,32.7459389 17.6049383,32.8187135 18,32.8187135 Z M18,30.8226121 C17.9168291,30.8226121 17.8180637,30.8070175 17.7037037,30.7758285 C17.5893437,30.7446394 17.4697856,30.677063 17.3450292,30.5730994 C17.0331384,30.2404159 16.3261858,29.4554906 15.2241715,28.2183236 C14.1221572,26.9811566 12.9421702,25.6712151 11.6842105,24.288499 C10.4262508,22.905783 9.25146199,21.6166342 8.15984405,20.4210526 C7.06822612,19.2254711 6.39766082,18.502924 6.14814815,18.2534113 C5.4619883,17.5672515 4.93177388,16.777128 4.55750487,15.8830409 C4.18323587,14.9889539 3.99610136,14.0532814 3.99610136,13.0760234 C3.99610136,12.0987654 4.18323587,11.1630929 4.55750487,10.2690058 C4.93177388,9.37491878 5.4619883,8.57439896 6.14814815,7.86744639 C6.83430799,7.20207927 7.57244964,6.72384665 8.3625731,6.43274854 C9.15269656,6.14165042 10.0259909,5.99610136 10.9824561,5.99610136 C11.4814815,5.99610136 12.1832359,6.19363223 13.0877193,6.58869396 C13.9922027,6.98375569 15.1617934,7.88823912 16.5964912,9.30214425 L18.0311891,10.705653 L19.4346979,9.27095517 C20.4327485,8.25211176 21.425601,7.45159194 22.4132554,6.86939571 C23.4009097,6.28719948 24.2482131,5.99610136 24.9551657,5.99610136 C25.9116309,5.99610136 26.7849253,6.16764133 27.5750487,6.51072125 C28.3651722,6.85380117 29.1241066,7.38921378 29.8518519,8.11695906 C30.5380117,8.80311891 31.0682261,9.59324237 31.4424951,10.4873294 C31.8167641,11.3814165 32.0038986,12.317089 32.0038986,13.294347 C32.0038986,14.2716049 31.8167641,15.2072775 31.4424951,16.1013645 C31.0682261,16.9954516 30.5380117,17.7959714 29.8518519,18.502924 L29.8391683,18.5119342 L29.8391683,18.5119342 L29.7876023,18.5590643 C29.6495387,18.6921378 29.3018843,19.0580897 28.7446394,19.6569201 C28.0480832,20.4054581 27.1643925,21.3619233 26.0935673,22.5263158 C25.022742,23.6907083 23.8271605,24.9798571 22.5068226,26.3937622 C21.1864847,27.8076673 19.9025341,29.2007797 18.6549708,30.5730994 C18.5302144,30.677063 18.4054581,30.7446394 18.2807018,30.7758285 C18.1559454,30.8070175 18.0623782,30.8226121 18,30.8226121 Z" id="" fill="#6F1C5A" fill-rule="nonzero"></path>
    </g>
</svg>