<?xml version="1.0" encoding="UTF-8"?>
<svg width="39px" height="15px" viewBox="0 0 39 15" version="1.1" xmlns="http://www.w3.org/2000/svg" xmlns:xlink="http://www.w3.org/1999/xlink">
    <!-- Generator: Sketch 64 (93537) - https://sketch.com -->
    <title>Artboard</title>
    <desc>Created with Sketch.</desc>
    <g id="Artboard" stroke="none" stroke-width="1" fill="none" fill-rule="evenodd">
        <rect fill="#FFFFFF" x="0" y="0" width="39" height="15"></rect>
        <path d="M19.5,10 C19.6875,10 19.865625,9.921875 20.034375,9.765625 L20.034375,9.765625 L23.859375,5.703125 L23.915625,5.625 C23.971875,5.57291667 24,5.50347222 24,5.41666667 C24,5.29513889 23.953125,5.1953125 23.859375,5.1171875 C23.765625,5.0390625 23.653125,5 23.521875,5 L23.521875,5 L15.478125,5 C15.346875,5 15.234375,5.0390625 15.140625,5.1171875 C15.046875,5.1953125 15,5.29513889 15,5.41666667 C15,5.52083333 15.028125,5.59895833 15.084375,5.65104167 L15.084375,5.65104167 L15.140625,5.703125 L18.965625,9.765625 C19.134375,9.921875 19.3125,10 19.5,10 Z" id="" fill="#000000" fill-rule="nonzero"></path>
    </g>
</svg>